<svg xmlns="http://www.w3.org/2000/svg" viewBox="0 0 495.26 495.26"><defs><style>.cls-1{fill:none;stroke:#000;stroke-miterlimit:10;stroke-width:10px;}.cls-2{fill-rule:evenodd;}</style></defs><title>Affilate</title><g id="วงกลม"><circle class="cls-1" cx="247.63" cy="247.63" r="242.63"/></g><g id="Layer_2" data-name="Layer 2"><path class="cls-2" d="M447.09,321.32l1-18.57c2.22-41.06-79.88-52-123.11-33.13,26.89,13.1,44.93,34.2,43.36,63.3l0,.93a223.09,223.09,0,0,0,78.8-12.53ZM346.32,356.69q-98.67,34-197.35,0l-1.35-24.93c-4.08-75.32,204.14-75.52,200.05,0l-1.35,24.93ZM194.12,176C192.81,190,196,223.29,203,235.88c6.11,11,20.34,21.58,36.11,25.2,7.64,1.13,9.54,1.13,17.17,0,15.77-3.62,30-14.19,36.11-25.2,7-12.59,10.14-45.84,8.83-59.9-2.53-26.92-26.63-40.39-53.52-40.39s-51,13.47-53.53,40.39Zm139.67,10.81c1.88-20,19.83-30.07,39.84-30.07s38,10,39.85,30.07c1,10.46-1.37,35.22-6.57,44.59-4.55,8.2-15.14,16.07-26.88,18.76a32.77,32.77,0,0,1-12.79,0c-11.74-2.69-22.33-10.56-26.87-18.76-5.21-9.37-7.56-34.13-6.58-44.59ZM48.21,321.32A223,223,0,0,0,127,333.85l-.05-.93c-1.58-29.1,16.47-50.2,43.35-63.3C127.08,250.71,45,261.69,47.2,302.75l1,18.57ZM161.5,186.79c1,10.46-1.37,35.22-6.57,44.59-4.55,8.2-15.14,16.07-26.88,18.76a32.72,32.72,0,0,1-12.78,0c-11.74-2.69-22.34-10.56-26.88-18.76-5.2-9.37-7.55-34.13-6.57-44.59,1.88-20,19.82-30.07,39.84-30.07S159.62,166.75,161.5,186.79Z" transform="translate(-2.37 -3.37)"/></g></svg>