<svg id="Layer_1" data-name="Layer 1" xmlns="http://www.w3.org/2000/svg" viewBox="0 0 323.31 354.14"><title>casino</title><path d="M142.62,376.39v28c3.36,1.26,6.85,2.42,10.4,3.55,17.93,7.15,40,12.29,64.37,14.59V391.73c-2-.16-4-.24-6-.43C186,388.83,162.62,383.71,142.62,376.39Z" transform="translate(-84.6 -79.24)"/><path d="M379.44,362.49V390a129.72,129.72,0,0,1-13.39,7.55,113.78,113.78,0,0,1-12.87,7.34c-1,.49-2.06.92-3.07,1.39-19.59,9-44.91,15.45-73.38,18.17l-1.39.1c-9.37.86-19,1.34-29,1.34s-19.6-.48-29-1.34l-1.39-.1c-28.47-2.72-53.79-9.2-73.38-18.17-1-.46-2.08-.9-3.07-1.39a112.09,112.09,0,0,1-12.86-7.33,132.62,132.62,0,0,1-13.4-7.55V362.5c-10.33-6.38-18.51-13.52-24-21a48.89,48.89,0,0,1-4.73-8c0,4.38.11,8,.17,11.23,0,1.64,0,3.22,0,4.67a32.28,32.28,0,0,0,.6,6.11,32.92,32.92,0,0,0-.6,6c0,7.49,2.62,14.9,7.78,22,4.77,6.58,11.83,12.87,20.69,18.62a132.3,132.3,0,0,0,14.3,8c4.72,2.28,9.78,4.37,15,6.33,20,7.49,43.51,12.71,69.19,15.21,1.84.18,3.72.26,5.58.41,9.59.78,19.29,1.26,29,1.26s19.39-.48,29-1.26c1.86-.15,3.74-.23,5.58-.41,25.68-2.5,49.22-7.73,69.19-15.21,5.25-2,10.31-4.06,15-6.34a129,129,0,0,0,14.3-8c8.85-5.73,15.91-12,20.69-18.6,5.16-7.12,7.78-14.53,7.78-22a32.08,32.08,0,0,0-.61-6,31.49,31.49,0,0,0,.61-6.11V333.93a49.81,49.81,0,0,1-4.51,7.53C397.94,349,389.76,356.12,379.44,362.49Z" transform="translate(-84.6 -79.24)"/><path d="M275.34,391.73v30.79c24.43-2.3,46.47-7.45,64.41-14.61,3.54-1.12,7-2.28,10.36-3.54v-28c-20,7.32-43.39,12.44-68.8,14.91C279.34,391.49,277.33,391.57,275.34,391.73Z" transform="translate(-84.6 -79.24)"/><path d="M400.63,295.72c-6.93-9.89-18.94-19.2-34.72-26.93-19.82-9.71-44.72-16.72-72.57-20.48l1.39,8.12c22.89,3.63,43.18,9.7,59.14,17.58,13.69,6.76,24.22,14.82,30.53,23.7,4.34,6.12,6.7,12.62,6.7,19.36,0,7-2.54,13.7-7.18,20a53.51,53.51,0,0,1-4.48,5.24C373,349,364.1,355.16,353.18,360.48c-1,.48-2.06.92-3.07,1.39-19.59,9-44.91,15.45-73.38,18.17-.45,0-.93.06-1.39.09-9.37.87-19,1.35-29,1.35s-19.6-.48-29-1.35c-.46,0-.94-.05-1.39-.09-28.47-2.72-53.79-9.2-73.38-18.17-1-.47-2.08-.91-3.07-1.39-10.92-5.31-19.81-11.46-26.26-18.17a52.17,52.17,0,0,1-4.48-5.24c-4.64-6.3-7.18-13-7.18-20,0-6.74,2.35-13.24,6.7-19.36,6.3-8.88,16.83-16.94,30.53-23.7,15.9-7.85,36.12-13.91,58.92-17.54l1.39-8.13c-27.76,3.77-52.59,10.76-72.35,20.44C111,276.51,99,285.83,92.1,295.72c-4.83,6.89-7.28,14.08-7.28,21.35,0,7.5,2.62,14.9,7.78,22,4.77,6.57,11.83,12.87,20.69,18.61a129,129,0,0,0,14.3,8c4.72,2.28,9.78,4.37,15,6.34,20,7.49,43.51,12.71,69.19,15.21,1.84.18,3.72.25,5.58.41,9.59.78,19.29,1.26,29,1.26s19.39-.48,29-1.26c1.86-.16,3.74-.23,5.58-.41,25.68-2.5,49.22-7.73,69.19-15.21,5.25-2,10.31-4.06,15-6.34a129,129,0,0,0,14.3-8c8.85-5.74,15.91-12,20.69-18.61,5.16-7.13,7.78-14.53,7.78-22C407.91,309.8,405.46,302.61,400.63,295.72Z" transform="translate(-84.6 -79.24)"/><path d="M171.66,291.31a105.15,105.15,0,0,1,21.69-9l4.05-23.63C176,262.24,157,268.06,142,275.52,152.35,280.65,162.21,285.92,171.66,291.31Z" transform="translate(-84.6 -79.24)"/><path d="M350.11,359c-10.38-5.14-20.22-10.41-29.63-15.8-14.79,8.3-36.44,14.06-61.11,15.58a229.68,229.68,0,0,1,16,19.34C304.67,375.35,330.65,368.5,350.11,359Z" transform="translate(-84.6 -79.24)"/><path d="M233.35,358.76c-24.66-1.52-46.31-7.28-61.1-15.58-9.41,5.39-19.25,10.67-29.63,15.8,19.46,9.52,45.44,16.37,74.77,19.12A231.49,231.49,0,0,1,233.35,358.76Z" transform="translate(-84.6 -79.24)"/><path d="M299.15,282.23a105.9,105.9,0,0,1,21.92,9.08c9.45-5.39,19.31-10.66,29.71-15.79-15.06-7.48-34.14-13.31-55.67-16.88Z" transform="translate(-84.6 -79.24)"/><path d="M106.19,317.07c0,6.84,2.51,13.4,7.1,19.57q22.81-2.16,45.63-3.54c-4.6-4.93-7.14-10.36-7.14-16,0-5.42,2.34-10.61,6.57-15.38-15.18-.95-30.36-2.1-45.54-3.54C108.52,304.12,106.19,310.48,106.19,317.07Z" transform="translate(-84.6 -79.24)"/><path d="M386.54,317.07c0-6.59-2.33-12.95-6.62-18.92q-22.77,2.16-45.54,3.54c4.23,4.77,6.57,10,6.57,15.38,0,5.67-2.55,11.1-7.14,16q22.82,1.41,45.63,3.54C384,330.47,386.54,323.91,386.54,317.07Z" transform="translate(-84.6 -79.24)"/><path d="M334.12,317.07c0-12.57-13.48-23.74-34.29-30.89l4.58,26.71-58.15-30.58L188.1,312.89l4.57-26.63c-20.68,7.15-34.06,18.29-34.06,30.81,0,21.54,39.36,39.05,87.75,39.05S334.12,338.61,334.12,317.07Z" transform="translate(-84.6 -79.24)"/><polygon points="125.65 165.3 117.15 214.87 161.65 191.47 206.16 214.87 197.66 165.3 233.66 130.21 183.91 122.98 161.65 77.89 139.4 122.98 89.64 130.21 125.65 165.3"/><polygon points="135.26 37.59 99.51 32.41 83.52 0 67.53 32.41 31.78 37.59 57.65 62.82 51.54 98.42 83.52 81.6 115.5 98.42 109.39 62.82 135.26 37.59"/><polygon points="219.84 77.15 215.57 102 237.89 90.27 260.2 102 255.94 77.15 274 59.56 249.05 55.92 237.89 33.32 226.73 55.92 201.78 59.56 219.84 77.15"/></svg>