<?xml version="1.0" encoding="iso-8859-1"?>
<!-- Generator: Adobe Illustrator 16.0.0, SVG Export Plug-In . SVG Version: 6.00 Build 0)  -->
<!DOCTYPE svg PUBLIC "-//W3C//DTD SVG 1.1//EN" "http://www.w3.org/Graphics/SVG/1.1/DTD/svg11.dtd">
<svg version="1.1" id="Capa_1" xmlns="http://www.w3.org/2000/svg" xmlns:xlink="http://www.w3.org/1999/xlink" x="0px" y="0px"
	 width="485.213px" height="485.212px" viewBox="0 0 485.213 485.212" style="enable-background:new 0 0 485.213 485.212;"
	 xml:space="preserve">
<g>
	<path d="M424.562,90.978C424.562,40.75,343.089,0,242.606,0S60.651,40.75,60.651,90.978v30.327c0,10.662,3.85,20.878,10.604,30.385
		c0,0,0-0.028-0.028-0.061c-6.726,9.509-10.576,19.695-10.576,30.327v30.327c0,10.662,3.85,20.881,10.604,30.385
		c0,0,0-0.03-0.028-0.061c-6.726,9.51-10.576,19.665-10.576,30.324v30.327c0,10.664,3.85,20.819,10.573,30.327
		c-6.723,9.506-10.573,19.662-10.573,30.321v30.331c0,50.251,81.473,90.976,181.956,90.976s181.955-40.725,181.955-90.976v-30.331
		c0-10.659-3.851-20.815-10.57-30.321c6.72-9.508,10.57-19.663,10.57-30.327V272.93c0-10.659-3.851-20.814-10.57-30.324
		c0,0.031-0.033,0.061-0.033,0.061c6.753-9.504,10.604-19.723,10.604-30.385v-30.327c0-10.631-3.851-20.817-10.57-30.327
		c0,0.033-0.033,0.061-0.033,0.061c6.753-9.507,10.604-19.723,10.604-30.385V90.978z M121.304,444.464
		c-12.676-6.52-22.892-13.74-30.327-21.44v-9.068c8.59,6.52,18.809,12.387,30.327,17.567V444.464z M272.933,468.63
		c-9.772,0.854-19.816,1.419-30.326,1.419v-15.163c10.365,0,20.433-0.532,30.326-1.363V468.63z M333.586,456.986
		c-9.39,2.969-19.55,5.479-30.331,7.496V449.5c10.604-1.899,20.736-4.271,30.331-7.053V456.986z M394.235,423.024
		c-7.431,7.7-17.651,14.921-30.327,21.44v-12.941c11.523-5.181,21.734-11.048,30.327-17.567V423.024z M242.606,439.727
		c-98.291,0-166.79-39.955-166.79-75.821c0-5.945,2.546-11.989,6.128-17.968c30.593,28.726,91.039,48.299,160.662,48.299
		c69.651,0,130.095-19.573,160.659-48.299c3.617,5.979,6.133,12.022,6.133,17.968C409.398,399.772,340.895,439.727,242.606,439.727z
		 M121.304,340.547v12.938c-12.027-6.189-21.62-13.026-28.964-20.288c1.893-1.807,3.906-3.552,6.072-5.298
		C95.925,326.266,109.786,335.362,121.304,340.547z M242.606,379.074v-15.168c10.365,0,20.433-0.532,30.326-1.362v15.111
		C263.16,378.509,253.116,379.074,242.606,379.074z M303.255,373.506v-14.981c10.604-1.904,20.736-4.271,30.331-7.052v14.538
		C324.196,368.974,314.036,371.49,303.255,373.506z M392.872,333.197c-7.317,7.262-16.941,14.099-28.964,20.288v-12.938
		c11.523-5.186,25.38-14.281,22.896-12.648C388.961,329.645,391.01,331.39,392.872,333.197z M242.606,348.748
		c-98.291,0-166.79-39.95-166.79-75.817c0-5.95,2.546-11.994,6.128-17.973c30.593,28.727,91.039,48.3,160.662,48.3
		c69.628,0,130.071-19.573,160.659-48.3c3.617,5.979,6.133,12.022,6.133,17.973C409.398,308.797,340.895,348.748,242.606,348.748z
		 M92.34,242.224c1.897-1.809,3.906-3.582,6.072-5.304c6.928,4.534,14.424,8.825,22.892,12.647v12.942
		C109.282,256.344,99.684,249.479,92.34,242.224z M242.606,288.094V272.93c10.365,0,20.433-0.531,30.326-1.362v15.107
		C263.16,287.529,253.116,288.094,242.606,288.094z M303.255,282.526v-14.981c10.604-1.899,20.736-4.271,30.331-7.052v14.538
		C324.196,277.999,314.036,280.51,303.255,282.526z M363.908,262.509v-12.942c8.471-3.822,15.966-8.146,22.896-12.647
		c2.156,1.722,4.173,3.496,6.067,5.274C385.555,249.479,375.931,256.344,363.908,262.509z M242.606,257.772
		c-98.291,0-166.79-39.953-166.79-75.817c0-5.951,2.546-11.961,6.128-17.945c-0.028-0.061-0.061-0.093-0.089-0.121
		c30.565,28.786,91.039,48.393,160.751,48.393c69.717,0,130.184-19.606,160.748-48.393c-0.032,0.028-0.056,0.061-0.089,0.121
		c3.617,5.983,6.133,11.994,6.133,17.945C409.398,217.819,340.895,257.772,242.606,257.772z M121.304,158.589v12.942
		c-12.027-6.161-21.62-13.03-28.964-20.286c1.893-1.806,3.906-3.554,6.072-5.302C95.925,144.287,109.786,153.407,121.304,158.589z
		 M242.606,197.119v-15.164c10.365,0,20.433-0.532,30.326-1.363v15.105C263.16,196.556,253.116,197.119,242.606,197.119z
		 M303.255,191.548v-14.983c10.604-1.895,20.736-4.264,30.331-7.047v14.54C324.196,187.019,314.036,189.539,303.255,191.548z
		 M392.872,151.246c-7.317,7.255-16.941,14.125-28.964,20.286v-12.942c11.523-5.183,25.38-14.302,22.896-12.646
		C388.961,147.664,390.978,149.44,392.872,151.246z M242.606,166.794c-98.291,0-166.79-39.953-166.79-75.817
		c0-35.834,68.499-75.814,166.79-75.814c98.288,0,166.792,39.98,166.792,75.814C409.398,126.842,340.895,166.794,242.606,166.794z
		 M326.684,108.393c0,8.025-5.983,14.718-17.917,20.047c-11.934,5.36-29.169,8.501-51.706,9.449v13.74H228.33v-13.651
		c-37.579-1.54-60.826-10.276-69.801-26.21l44.421-4.621c4.119,10.013,17.742,14.988,40.872,14.988
		c10.812,0,18.806-1.066,23.897-3.199c5.092-2.13,7.64-4.737,7.64-7.759c0-3.139-2.548-5.51-7.64-7.136
		c-5.092-1.629-16.438-3.675-34-6.16c-15.784-2.191-28.133-4.357-37.019-6.487c-8.884-2.131-16.108-5.152-21.648-9
		c-5.535-3.853-8.319-8.354-8.319-13.479c0-6.721,4.976-12.765,14.867-18.15c9.892-5.362,25.468-8.65,46.734-9.836V30.327h28.726
		v10.601c32.1,1.542,52.892,8.795,62.338,21.798l-39.567,6.487c-7.729-8.917-19.63-13.357-35.804-13.357
		c-8.114,0-14.629,1.008-19.518,2.992c-4.915,1.983-7.372,4.41-7.372,7.227c0,2.9,2.369,5.122,7.105,6.66
		c4.711,1.542,14.87,3.438,30.39,5.745c17.058,2.49,30.443,4.831,40.127,7.052c9.712,2.22,17.441,5.27,23.247,9.183
		C323.781,98.62,326.684,103.18,326.684,108.393z"/>
</g>
<g>
</g>
<g>
</g>
<g>
</g>
<g>
</g>
<g>
</g>
<g>
</g>
<g>
</g>
<g>
</g>
<g>
</g>
<g>
</g>
<g>
</g>
<g>
</g>
<g>
</g>
<g>
</g>
<g>
</g>
</svg>
