<svg xmlns="http://www.w3.org/2000/svg" viewBox="0 0 495.26 495.26"><defs><style>.cls-1{fill:none;stroke:#000;stroke-miterlimit:10;stroke-width:10px;}</style></defs><title>Coin</title><g id="วงกลม"><circle class="cls-1" cx="247.63" cy="247.63" r="242.63"/></g><g id="Layer_3" data-name="Layer 3"><path d="M237.5,174.32c-57.1,0-103.4,16.1-103.4,36V237.6c0,19.85,46.3,36,103.4,36s103.41-16.1,103.41-36V210.27C340.91,190.42,294.61,174.32,237.5,174.32Zm-79.89,82.31a66.29,66.29,0,0,1-13.82-7.92V221.9a66.29,66.29,0,0,0,13.82,7.92Zm20.3,6.82c-4.94-1.26-9.56-2.68-13.82-4.23v-26.8c4.26,1.55,8.88,3,13.82,4.22Zm20.3,4c-4.79-.71-9.41-1.54-13.81-2.49V238.18c4.4.95,9,1.78,13.81,2.5Zm124.5-13.38A98.17,98.17,0,0,1,308.89,260V233.15a99.38,99.38,0,0,0,13.82-5.85Zm-14.87-26.4c-18.66,6.49-43.64,10.06-70.34,10.06s-51.67-3.57-70.34-10.06c-17-5.9-24.6-13-24.6-17.43s7.61-11.52,24.6-17.43c18.67-6.48,43.65-10.06,70.34-10.06s51.68,3.58,70.34,10.06c17,5.91,24.61,13,24.61,17.43S324.84,221.8,307.84,227.7Z" transform="translate(-2.37 -3.37)"/><path d="M270.64,212.43a20.07,20.07,0,0,0-6.7-3.36q-4-1.19-14.89-3.42-12.83-2.62-15.44-3.54c-1.8-.61-2.7-1.67-2.7-3.2a2.21,2.21,0,0,1,1.31-2,8.93,8.93,0,0,1,3.94-.68c2.17,0,3.59.27,4.25.79s1,1.65,1,3.36v1.61H270a9,9,0,0,0,.29-1.82q0-4.31-6.59-6.74t-19.85-3v-3.09H230.7v3.09q-14.52.57-21.79,3.05t-7.27,6.81c0,2,1.15,3.78,3.44,5.37a26.64,26.64,0,0,0,8.15,3.68q4.71,1.31,17.83,4.09,7.86,1.65,9.21,3.05c.9.94,1.34,2.5,1.34,4.67a2.12,2.12,0,0,1-1.41,2,11,11,0,0,1-4.32.66c-2.27,0-3.7-.32-4.29-.95s-.89-2.25-.89-4.86v-2.38H202.07v1.9q0,6.48,8.57,9.08a78.92,78.92,0,0,0,20.06,3v3.76h13.18v-3.64q14.75-.69,22.11-3.65c4.92-2,7.37-4.67,7.37-8.12A6.63,6.63,0,0,0,270.64,212.43Z" transform="translate(-2.37 -3.37)"/><path d="M374.67,159.33c-43.39-32-87.57-45.69-98.7-30.61l-15.3,20.76c-11.13,15.09,15,53.25,58.41,85.23s87.58,45.7,98.7,30.62l15.31-20.76C444.21,229.49,418.05,191.32,374.67,159.33ZM267.87,177.1a62.41,62.41,0,0,1-6.07-13.75l15-20.37a62.13,62.13,0,0,0,6.06,13.75Zm11.6,16.56c-3.05-3.73-5.77-7.4-8.13-10.95l15-20.37c2.37,3.56,5.09,7.23,8.13,10.95Zm13.16,14.44q-4.86-4.84-9.1-9.64l15-20.37c2.81,3.2,5.86,6.41,9.1,9.65Zm102.08,59.57a93.26,93.26,0,0,1-13.78-3.29L396,244a94.65,94.65,0,0,0,13.78,3.3Zm3.49-28.39c-17.81-5.52-38.79-16.8-59.07-31.75s-37.26-31.66-47.8-47.05c-9.61-14-11.41-23.66-8.93-27s12.23-4.5,28.46.53c17.81,5.54,38.79,16.81,59.07,31.76s37.26,31.67,47.8,47.05c9.6,14,11.4,23.67,8.93,27S414.42,244.32,398.2,239.28Z" transform="translate(-2.37 -3.37)"/><path d="M378.49,206.85a18.6,18.6,0,0,0-3.21-6.31q-2.34-3.14-9.39-10.94-8.26-9.18-9.75-11.34c-1-1.47-1.11-2.78-.25-3.94a2.06,2.06,0,0,1,2.14-.82,8.24,8.24,0,0,1,3.37,1.68c1.65,1.22,2.58,2.21,2.79,3s-.17,1.8-1.13,3.1l-.9,1.23,21.75,16a9.45,9.45,0,0,0,1.24-1.23q2.4-3.27-1.24-8.81t-13.39-13.4l1.73-2.35-10-7.38-1.74,2.35q-11.36-7.71-18.26-9.9t-9.33,1.11q-1.68,2.28-.4,6a25.13,25.13,0,0,0,4.13,7.36q2.85,3.63,11.25,13.09,5.06,5.66,5.29,7.48c.16,1.21-.38,2.65-1.59,4.3a2,2,0,0,1-2.18.7,10.49,10.49,0,0,1-3.65-1.92c-1.72-1.28-2.63-2.32-2.73-3.13s.59-2.21,2.05-4.19l1.33-1.8-21.75-16-1.06,1.44Q320,177.15,325,183.94a74.54,74.54,0,0,0,13.56,13.49l-2.1,2.86,10,7.39,2-2.77q11.59,7.72,18.84,9.61c4.83,1.27,8.22.58,10.15-2A6.24,6.24,0,0,0,378.49,206.85Z" transform="translate(-2.37 -3.37)"/><path d="M237.5,282.29c-53.48,0-97.49-14.12-102.85-32.23a13.21,13.21,0,0,0-.55,3.73v27.32c0,19.86,46.3,36,103.4,36s103.41-16.11,103.41-36V253.79a12.87,12.87,0,0,0-.56-3.73C335,268.17,291,282.29,237.5,282.29Zm-79.89,17.85a65.85,65.85,0,0,1-13.82-7.92v-26.8a65.84,65.84,0,0,0,13.82,7.91Zm20.3,6.83c-4.94-1.26-9.56-2.68-13.82-4.23V275.93c4.26,1.55,8.88,3,13.82,4.23Zm20.3,4c-4.79-.71-9.41-1.55-13.81-2.5V281.7c4.4.95,9,1.78,13.81,2.5Zm124.5-13.38a98.19,98.19,0,0,1-13.82,5.85v-26.8a100.58,100.58,0,0,0,13.82-5.86Z" transform="translate(-2.37 -3.37)"/><path d="M237.5,326.93C184,326.93,140,312.8,134.65,294.7a13.21,13.21,0,0,0-.55,3.73v27.32c0,19.86,46.3,36,103.4,36s103.41-16.1,103.41-36V298.43a12.87,12.87,0,0,0-.56-3.73C335,312.8,291,326.93,237.5,326.93Zm-79.89,17.85a66.29,66.29,0,0,1-13.82-7.92V310.05A66.29,66.29,0,0,0,157.61,318Zm20.3,6.82c-4.94-1.26-9.56-2.68-13.82-4.22V320.56a143.27,143.27,0,0,0,13.82,4.23Zm20.3,4c-4.79-.71-9.41-1.55-13.81-2.51v-26.8c4.4,1,9,1.78,13.81,2.51Zm124.5-13.39a99.36,99.36,0,0,1-13.82,5.86V321.3a99.38,99.38,0,0,0,13.82-5.85Z" transform="translate(-2.37 -3.37)"/></g></svg>