<?xml version="1.0" encoding="utf-8"?>
<!-- Generator: Adobe Illustrator 23.0.3, SVG Export Plug-In . SVG Version: 6.00 Build 0)  -->
<svg version="1.1" xmlns="http://www.w3.org/2000/svg" xmlns:xlink="http://www.w3.org/1999/xlink" x="0px" y="0px"
	 viewBox="0 0 500 500" style="enable-background:new 0 0 500 500;" xml:space="preserve">
<style type="text/css">
	.st0{fill:none;stroke:#000000;stroke-width:10;stroke-miterlimit:10;}
</style>
<g id="วงกลม">
	<circle class="st0" cx="250" cy="251" r="242.63"/>
</g>
<g id="งานจริง">
	<path d="M384.33,284.11c-8.24-1.14-15.71-1.97-23.07-3.41c-1.06-0.21-2.18-3.33-2.19-5.11c-0.17-16.93-0.26-33.87,0.01-50.8
		c0.08-4.68-1.41-5.84-5.92-5.83c-70.15,0.13-140.31,0.13-210.46-0.01c-4.48-0.01-5.53,1.4-5.51,5.67
		c0.15,40.97,0.08,81.95,0.09,122.92c0,8.53,0.94,9.44,9.31,9.44c43.69,0,87.39,0.05,131.08-0.09c4.16-0.01,5.98,1.06,6.18,5.41
		c0.22,4.81,0.87,9.64,1.88,14.35c0.91,4.22-0.44,5.15-4.5,5.14c-47.62-0.12-95.25-0.07-142.88-0.09c-1.66,0-3.34,0-4.97-0.29
		c-11.98-2.13-19.28-10.74-19.36-23.13c-0.11-16.93-0.03-33.87-0.03-50.8c0-48.08,0.26-96.16-0.14-144.24
		c-0.14-17.04,10.3-23.23,23.48-23.61c11.03-0.32,22.07-0.06,33.11-0.06c1.64,0,3.27,0,5.53,0c0-6.2-0.03-12.03,0.01-17.87
		c0.06-8.72,1.67-10.32,10.24-10.33c6.95,0,13.91-0.01,20.86,0c6.52,0.02,8.65,2.06,8.75,8.67c0.1,6.31,0.02,12.63,0.02,19.19
		c21.75,0,43.01,0,65.01,0c0-5.89-0.01-11.87,0-17.85c0.02-7.35,2.67-9.99,10.12-10.02c7.41-0.02,14.82-0.06,22.22,0.01
		c6.49,0.06,9.44,3.01,9.5,9.41c0.05,6.02,0.01,12.05,0.01,18.69c7.94,0,15.6-0.21,23.24,0.07c6.13,0.22,12.49,0.16,18.31,1.79
		c12.17,3.41,20.06,14.93,20.06,27.62c0.01,36.44,0,72.87,0,109.31C384.33,279.91,384.33,281.54,384.33,284.11z"/>
	<path d="M347.77,397.12c-29.52-0.06-53.3-24.15-53.22-53.9c0.09-29.49,24.23-53.22,54.01-53.1c29.45,0.12,53.12,24.3,52.99,54.13
		C401.42,373.47,377.3,397.18,347.77,397.12z M343,353.28c-4.16-4.24-7.94-8.12-11.75-11.97c-6.53-6.61-6.48-6.54-12.78,0.22
		c-1.92,2.07-2.19,3.62-0.08,5.71c7.3,7.22,14.53,14.53,21.71,21.87c2.03,2.08,3.66,2.03,5.7-0.02
		c12.13-12.22,24.36-24.35,36.47-36.6c0.92-0.94,1.96-3.23,1.53-3.79c-2.08-2.69-4.42-5.37-7.22-7.21c-0.73-0.48-3.72,1.8-5.22,3.28
		C361.94,334.1,352.64,343.56,343,353.28z"/>
	<path d="M171.42,262.75c-8.26-0.02-14.91-6.76-14.89-15.08c0.02-8.25,6.78-14.89,15.11-14.86c8.24,0.03,14.86,6.8,14.82,15.14
		C186.43,256.14,179.69,262.77,171.42,262.75z M170.09,250.49c-1.16-1.19-2.22-2.27-3.29-3.35c-1.83-1.85-1.81-1.83-3.58,0.06
		c-0.54,0.58-0.61,1.01-0.02,1.6c2.04,2.02,4.07,4.06,6.07,6.12c0.57,0.58,1.02,0.57,1.6-0.01c3.39-3.42,6.82-6.81,10.2-10.24
		c0.26-0.26,0.55-0.9,0.43-1.06c-0.58-0.75-1.24-1.5-2.02-2.02c-0.2-0.13-1.04,0.5-1.46,0.92
		C175.39,245.12,172.79,247.77,170.09,250.49z"/>
	<path d="M210.16,262.75c-8.26-0.02-14.91-6.76-14.89-15.08c0.02-8.25,6.78-14.89,15.11-14.86c8.24,0.03,14.86,6.8,14.82,15.14
		C225.17,256.14,218.42,262.77,210.16,262.75z M208.83,250.49c-1.16-1.19-2.22-2.27-3.29-3.35c-1.83-1.85-1.81-1.83-3.58,0.06
		c-0.54,0.58-0.61,1.01-0.02,1.6c2.04,2.02,4.07,4.06,6.07,6.12c0.57,0.58,1.02,0.57,1.6-0.01c3.39-3.42,6.82-6.81,10.2-10.24
		c0.26-0.26,0.55-0.9,0.43-1.06c-0.58-0.75-1.24-1.5-2.02-2.02c-0.2-0.13-1.04,0.5-1.46,0.92
		C214.12,245.12,211.52,247.77,208.83,250.49z"/>
	<path d="M249.51,262.75c-8.26-0.02-14.91-6.76-14.89-15.08c0.02-8.25,6.78-14.89,15.11-14.86c8.24,0.03,14.86,6.8,14.82,15.14
		C264.52,256.14,257.77,262.77,249.51,262.75z M248.18,250.49c-1.16-1.19-2.22-2.27-3.29-3.35c-1.83-1.85-1.81-1.83-3.58,0.06
		c-0.54,0.58-0.61,1.01-0.02,1.6c2.04,2.02,4.07,4.06,6.07,6.12c0.57,0.58,1.02,0.57,1.6-0.01c3.39-3.42,6.82-6.81,10.2-10.24
		c0.26-0.26,0.55-0.9,0.43-1.06c-0.58-0.75-1.24-1.5-2.02-2.02c-0.2-0.13-1.04,0.5-1.46,0.92
		C253.47,245.12,250.87,247.77,248.18,250.49z"/>
	<path d="M288.25,262.75c-8.26-0.02-14.91-6.76-14.89-15.08c0.02-8.25,6.78-14.89,15.11-14.86c8.24,0.03,14.86,6.8,14.82,15.14
		C303.26,256.14,296.51,262.77,288.25,262.75z M286.91,250.49c-1.16-1.19-2.22-2.27-3.29-3.35c-1.83-1.85-1.81-1.83-3.58,0.06
		c-0.54,0.58-0.61,1.01-0.02,1.6c2.04,2.02,4.07,4.06,6.07,6.12c0.57,0.58,1.02,0.57,1.6-0.01c3.39-3.42,6.82-6.81,10.2-10.24
		c0.26-0.26,0.55-0.9,0.43-1.06c-0.58-0.75-1.24-1.5-2.02-2.02c-0.2-0.13-1.04,0.5-1.46,0.92
		C292.21,245.12,289.61,247.77,286.91,250.49z"/>
	<path d="M234.75,284.41c0-1.81-0.07-3.62,0.02-5.42c0.23-5.11,3.76-8.85,8.8-9.07c4.06-0.18,8.14-0.17,12.2,0
		c5.07,0.21,8.68,3.91,8.86,9c0.14,3.91,0.13,7.84,0,11.75c-0.18,5.31-3.86,8.91-9.24,9.08c-3.31,0.11-6.63,0.04-9.95,0.02
		c-7.31-0.04-10.65-3.44-10.69-10.84C234.75,287.43,234.75,285.92,234.75,284.41z"/>
	<path d="M250.07,307.99c1.96,0,3.93-0.11,5.88,0.02c4.85,0.33,8.46,3.9,8.67,8.73c0.17,4.06,0.16,8.14,0.01,12.2
		c-0.19,5.08-3.85,8.72-8.95,8.9c-4.06,0.14-8.14,0.17-12.2-0.01c-4.85-0.22-8.45-3.85-8.67-8.7c-0.17-3.61-0.07-7.23-0.04-10.85
		c0.06-6.72,3.58-10.22,10.33-10.3c1.66-0.02,3.32,0,4.97,0C250.07,307.98,250.07,307.98,250.07,307.99z"/>
	<path d="M185.71,285.16c0,1.96,0.11,3.92-0.02,5.87c-0.32,4.81-3.92,8.48-8.72,8.69c-4.06,0.18-8.14,0.16-12.2,0.01
		c-5.09-0.19-8.73-3.84-8.92-8.92c-0.15-3.91-0.13-7.83-0.01-11.75c0.16-5.31,3.83-8.98,9.15-9.17c3.46-0.12,6.93-0.06,10.39-0.02
		c6.72,0.07,10.25,3.61,10.33,10.32c0.02,1.66,0,3.31,0,4.97C185.72,285.16,185.72,285.16,185.71,285.16z"/>
	<path d="M209.51,299.77c-1.81,0-3.62,0.06-5.42-0.01c-5.34-0.23-9.04-3.83-9.22-9.12c-0.13-3.91-0.15-7.84,0.01-11.75
		c0.2-5.09,3.8-8.74,8.89-8.97c4.06-0.18,8.14-0.19,12.2,0c5.02,0.23,8.57,3.98,8.76,9.1c0.12,3.31,0.04,6.63,0.02,9.94
		c-0.04,7.38-3.4,10.77-10.71,10.82C212.52,299.78,211.01,299.77,209.51,299.77z"/>
	<path d="M303.67,284.88c0,1.96,0.08,3.92-0.02,5.87c-0.25,5.11-3.8,8.77-8.88,8.98c-3.91,0.16-7.83,0.13-11.75,0.01
		c-5.32-0.16-9.04-3.81-9.23-9.1c-0.14-3.76-0.11-7.53-0.01-11.3c0.15-5.59,3.8-9.28,9.35-9.46c3.16-0.1,6.33-0.03,9.49-0.02
		c7.68,0.03,11.01,3.33,11.05,10.95C303.68,282.17,303.67,283.53,303.67,284.88z"/>
	<path d="M185.72,322.75c0,1.96,0.07,3.92-0.02,5.87c-0.22,5.34-3.84,9.06-9.11,9.23c-3.91,0.13-7.84,0.14-11.75,0
		c-5.29-0.19-8.86-3.91-9-9.31c-0.1-3.76-0.11-7.53,0-11.3c0.16-5.34,3.77-9.03,9.08-9.24c3.31-0.13,6.63-0.04,9.94-0.03
		c7.37,0.04,10.8,3.42,10.86,10.7C185.73,320.03,185.73,321.39,185.72,322.75z"/>
	<path d="M209.51,337.88c-1.81,0-3.62,0.06-5.42-0.01c-5.34-0.23-9.04-3.83-9.22-9.12c-0.13-3.91-0.15-7.84,0-11.75
		c0.2-5.09,3.79-8.74,8.89-8.97c4.06-0.18,8.14-0.19,12.2,0c5.03,0.23,8.57,3.98,8.76,9.1c0.12,3.31,0.04,6.63,0.02,9.94
		c-0.04,7.38-3.4,10.77-10.71,10.82C212.52,337.89,211.01,337.88,209.51,337.88z"/>
	<path d="M342.68,249.11c0,1.81,0.07,3.62-0.02,5.42c-0.24,5.11-3.74,8.84-8.79,9.08c-4.06,0.2-8.14,0.19-12.19,0.01
		c-5.09-0.22-8.69-3.89-8.87-8.98c-0.14-3.91-0.13-7.83,0-11.74c0.18-5.29,3.88-8.93,9.21-9.11c3.31-0.11,6.63-0.04,9.94-0.02
		c7.33,0.05,10.68,3.44,10.72,10.83C342.69,246.1,342.68,247.6,342.68,249.11z"/>
</g>
</svg>
