<?xml version="1.0" encoding="utf-8"?>
<!-- Generator: Adobe Illustrator 23.0.3, SVG Export Plug-In . SVG Version: 6.00 Build 0)  -->
<svg version="1.1" xmlns="http://www.w3.org/2000/svg" xmlns:xlink="http://www.w3.org/1999/xlink" x="0px" y="0px"
	 viewBox="0 0 500 500" style="enable-background:new 0 0 500 500;" xml:space="preserve">
<style type="text/css">
	.st0{fill:none;stroke:#000000;stroke-width:10;stroke-miterlimit:10;}
</style>
<g id="วงกลม">
	<circle class="st0" cx="250" cy="251" r="242.63"/>
</g>
<g id="งานจริง">
	<path d="M359.63,246.55c14.39,2.61,28.87,5.24,43.87,7.96c-3.78,52.17-24.53,94.11-70.17,121.54
		c-58.37,35.07-123.01,37.1-191.42-19.4c-9.28,8-18.65,16.09-28.71,24.77c-3.37-32.2-6.66-63.55-10.04-95.83
		c32.5,6.1,64.25,12.06,97.28,18.27c-9.77,8.92-18.76,17.11-28.1,25.63c11.92,10.97,24.85,19.97,40.07,24.82
		c38.6,12.31,74.5,6.56,106.25-18.84c18.36-14.69,27.54-35.58,33.73-57.71C355.18,267.72,357.13,257.43,359.63,246.55z"/>
	<path d="M356.04,141.49c9.32-8.22,18.5-16.31,28.4-25.04c4.03,32.18,7.94,63.42,11.93,95.32c-32.16-5.38-63.74-10.67-96.54-16.16
		c9.95-8.42,19.26-16.29,29.12-24.63c-29.78-24.89-62.52-38.83-101.41-28.6c-57.21,15.05-83.93,54.34-85.83,112.94
		c-15.25-2.37-30.07-4.68-45.21-7.03c2.93-53.47,23.85-96.17,70.31-124.26C233.95,83.45,296.59,94.31,356.04,141.49z"/>
	<path d="M277.95,247.14c3.6,1.89,6.58,3.33,9.44,4.97c8.48,4.88,15.36,11.21,14.87,21.87c-0.54,11.63-5.05,21.83-16.21,26.71
		c-7.33,3.21-15.53,4.56-23.47,6.15c-2.97,0.6-3.98,1.45-3.84,4.34c0.18,3.63,0.04,7.28,0.04,11.25c-5.86,0-11.27,0-17.44,0
		c0-5.37,0-10.73,0-16.59c-10.98,0-21.23,0-31.71,0c0-37.56,0-74.6,0-112.23c10.36,0,20.43,0,30.98,0c0-6.99,0-13.41,0-20.13
		c6.05,0,11.62,0,17.66,0c0,6.76,0,13.35,0,20.35c6.05,1.02,11.72,1.95,17.39,2.93c10.61,1.85,18.21,7.33,20.68,18.23
		c2.58,11.36-1.81,20.18-10.86,26.97C283.24,243.64,280.87,245.14,277.95,247.14z M259.65,259.37c0,9.8,0,19.62,0,29.47
		c12.8-1.13,18.02-6.93,16.77-18.21C275.52,262.43,269.38,258.25,259.65,259.37z M259.25,238.14c5.35-0.33,10.79-0.31,13.29-5.49
		c2.4-4.97,2.05-10.56-1.18-15.21c-2.81-4.05-7.22-4.85-12.11-4C259.25,221.71,259.25,229.77,259.25,238.14z M232.82,258.83
		c0,10.56,0,20.76,0,31.02c2.69,0,5.06,0,7.35,0c0-10.73,0-21.07,0-31.71C237.45,258.39,235.18,258.61,232.82,258.83z M240.3,211.87
		c-2.67,0-4.93,0-7.36,0c0,9.54,0,18.76,0,28.02c2.6,0,4.87,0,7.36,0C240.3,230.54,240.3,221.45,240.3,211.87z"/>
</g>
</svg>
