<svg xmlns="http://www.w3.org/2000/svg" viewBox="0 0 495.26 495.26"><defs><style>.cls-1{fill:none;stroke:#000;stroke-miterlimit:10;stroke-width:10px;}.cls-2{fill-rule:evenodd;}</style></defs><title>Event</title><g id="วงกลม"><circle class="cls-1" cx="247.63" cy="247.63" r="242.63"/></g><g id="Layer_4" data-name="Layer 4"><path class="cls-2" d="M381.16,257.69V361.35a23.41,23.41,0,0,1-23.34,23.32H269.34v-127ZM237.08,134.91h25.09a16.09,16.09,0,0,1,16.05,16v10a16.09,16.09,0,0,1-16.05,16H237.08a16.13,16.13,0,0,1-16.05-16v-10a16.11,16.11,0,0,1,16.05-16Zm-.29,6.73a7.21,7.21,0,0,0-7.17,7.16h0a7.22,7.22,0,0,0,7.17,7.2h25.67a7.2,7.2,0,0,0,7.17-7.2h0a7.18,7.18,0,0,0-7.17-7.16ZM124.84,156.08a16.7,16.7,0,0,0,16.63,16.65h58.81c16.5,0,23.17-21.51,8.63-30.26-31.22-18.69-84.07-38.62-84.07,13.61ZM140.93,150c-4.92,1.91-7.3-5.86-6.67-9.51,1.41-8,13.38-12.69,27.38-10.73,14.72,2,30.43,10.29,37.72,14.84,3.38,2.08,5.71,4.17,3.63,7.5-4.88,7.83-30.51-6.4-43.31-8.17a35.14,35.14,0,0,0-4.58-.35c-4.5,0-8.46,1.06-11,3.94a8.48,8.48,0,0,1-3.17,2.48Zm233.65,6.08c0-52.23-52.89-32.3-84.11-13.61-14.54,8.75-7.88,30.26,8.63,30.26h58.81a16.75,16.75,0,0,0,16.67-16.65Zm-15.8-5.94a7.39,7.39,0,0,1-3.67-2.62,10.71,10.71,0,0,0-4.66-3,24.18,24.18,0,0,0-10.92-.56c-9.8,1.35-38.64,15.71-43.31,8.17-2.08-3.33.25-5.42,3.59-7.5,7.29-4.55,23.05-12.82,37.76-14.84,14-2,26,2.75,27.34,10.73.67,3.61-1.5,10.76-6.13,9.65ZM230,188.8v53.93H114.34a9,9,0,0,1-8.92-8.94V215.55a26.82,26.82,0,0,1,26.76-26.75Zm163.92,26.75v18.24a9,9,0,0,1-8.95,8.94H269.34V188.8h97.78a26.82,26.82,0,0,1,26.75,26.75ZM230,384.67H141.47a23.39,23.39,0,0,1-23.34-23.32V257.69H230Z" transform="translate(-2.37 -3.37)"/></g></svg>