<?xml version="1.0" encoding="utf-8"?>
<!-- Generator: Adobe Illustrator 23.0.3, SVG Export Plug-In . SVG Version: 6.00 Build 0)  -->
<svg version="1.1" xmlns="http://www.w3.org/2000/svg" xmlns:xlink="http://www.w3.org/1999/xlink" x="0px" y="0px"
	 viewBox="0 0 500 500" style="enable-background:new 0 0 500 500;" xml:space="preserve">
<style type="text/css">
	.st0{display:none;}
	.st1{display:inline;fill:none;stroke:#000000;stroke-width:10;stroke-miterlimit:10;}
	.st2{fill:#010101;}
</style>
<g id="วงกลม" class="st0">
	<circle class="st1" cx="250" cy="251" r="242.63"/>
</g>
<g id="งานจริง">
	<g>
		<path class="st2" d="M337.89,411.44H124.37V85.19h102V73.46h-21.82c-2.21,0-4.02-1.81-4.02-4.02c0-1.12,0.45-2.14,1.17-2.88
			c0.74-0.71,1.74-1.17,2.86-1.17h22.39c0.67-3.88,1.9-7.54,3.64-10.92h-98.12c-18.11,0-32.76,14.66-32.76,32.74v342.74
			c0,18.08,14.66,32.74,32.76,32.74h197.36c18.11,0,32.76-14.66,32.76-32.74V221.1h-24.7V411.44z M231.13,450.34
			c-8.02,0-14.54-6.5-14.54-14.56c0-8.02,6.52-14.54,14.54-14.54c8.07,0,14.56,6.52,14.56,14.54
			C245.69,443.85,239.2,450.34,231.13,450.34z"/>
		<path class="st2" d="M309.31,133.59c0-2.69-2.19-4.85-4.88-4.85c-2.66,0.02-4.83,2.19-4.83,4.88c0.02,2.66,2.19,4.83,4.88,4.83
			C307.15,138.45,309.31,136.26,309.31,133.59z"/>
		<path class="st2" d="M312.64,130.24c2.69,0,4.83-2.17,4.83-4.85c0-2.69-2.17-4.85-4.85-4.85c-2.69,0.02-4.85,2.19-4.85,4.88
			C307.79,128.07,309.95,130.24,312.64,130.24z"/>
		<path class="st2" d="M312.67,136.9c-2.69,0.02-4.85,2.19-4.85,4.88c0,2.66,2.19,4.83,4.85,4.83c2.69,0,4.85-2.17,4.83-4.85
			C317.52,139.07,315.33,136.9,312.67,136.9z"/>
		<path class="st2" d="M320.83,128.72c-2.69,0-4.85,2.19-4.85,4.85c0.02,2.69,2.19,4.85,4.88,4.83c2.66,0,4.85-2.17,4.83-4.85
			C325.68,130.86,323.52,128.69,320.83,128.72z"/>
		<path class="st2" d="M402.17,130.95h-4.45v-4.45c-0.02-2.38-1.97-4.33-4.35-4.31c-2.4,0-4.35,1.95-4.35,4.33l0.02,4.45l-4.45,0.02
			c-2.4,0-4.35,1.95-4.35,4.33c0.02,2.43,1.95,4.35,4.38,4.35l4.43-0.02l0.02,4.45c0,2.4,1.95,4.35,4.35,4.35
			c2.4-0.02,4.33-1.97,4.33-4.38v-4.43l4.45-0.02c2.4,0,4.33-1.95,4.33-4.33C406.51,132.88,404.58,130.95,402.17,130.95z"/>
		<path class="st2" d="M436.48,38.18H264.94c-18.68,0-33.81,15.13-33.81,33.81v186.58l38.59-42.23h166.76
			c18.68,0,33.81-15.13,33.81-33.81V71.99C470.29,53.32,455.16,38.18,436.48,38.18z M390.02,181.18
			c-7.16,0.02-14.01-3.88-19.22-10.97c-1.59-2.14-3.02-4.57-4.26-7.21c-10.21,2.17-21.27,2.17-31.43-0.07
			c-5.4,11.71-13.92,18.42-23.48,18.44c-3.62,0-7.16-0.98-10.47-2.83c-3.28-1.88-6.33-4.64-8.95-8.21
			c-6.09-8.23-9.59-20.3-9.64-33.1c-0.05-24.77,12.61-44.21,28.84-44.23c7.71-0.02,15.04,4.52,20.46,12.75
			c4.71-1.26,9.78-2.07,14.94-2.36c-0.83-9.4,2.02-17.42,10.85-22.67c4.14-2.45,8.78-3.55,13.09-5.54
			c5.76-2.69,4.93-8.14,3.95-13.63c-0.67-3.9,5.45-4.54,6.11-0.64c1.76,9.92-0.05,17.15-9.97,20.84c-4.9,1.83-10.99,3.5-14.51,7.61
			c-3.55,4.14-3.97,8.92-3.4,13.94c5.73,0.14,11.33,0.83,16.58,2.21c5.35-8.07,12.71-12.68,20.32-12.71
			c7.23,0,14.13,3.93,19.39,11.02c6.09,8.26,9.59,20.32,9.64,33.1C418.9,161.72,406.24,181.16,390.02,181.18z"/>
	</g>
</g>
</svg>
