<svg id="Layer_2" data-name="Layer 2" xmlns="http://www.w3.org/2000/svg" viewBox="0 0 455.03 429.81"><title>Home</title><path d="M288.91,464.7c0-13.59,0-26.22,0-38.84,0-26.92.28-53.85-.12-80.76-.31-20.81-14.37-37.5-33.22-40.65-16.89-2.82-34.63,7.91-40.78,25.65a65.09,65.09,0,0,0-3.24,20.44c-.32,34.21-.14,68.41-.14,102.62v11.23c-3.36.26-6.06.66-8.77.67-16.78.06-33.6-.67-50.35.17-36.52,1.83-58-27.3-58.45-55.44-.61-36.42-.49-72.85,0-109.26.24-18.47,8.05-34.77,20.22-48.06a567.23,567.23,0,0,1,43.61-42.16c30.42-26.77,61.42-52.87,92.76-79.75,2.34,1.73,4.65,3.22,6.72,5,35.6,30.47,71.42,60.71,106.62,91.65,10.14,8.92,19.13,19.37,27.55,30,12,15.11,17.21,32.67,16.94,52.18-.44,32-.12,64-.12,96,0,15.75-4.36,30-14.88,42-8.68,9.88-19.39,16.87-32.71,17.22C337.16,465.14,313.77,464.7,288.91,464.7Z" transform="translate(-23.26 -35.51)"/><path d="M250.66,90.47c-23,20.43-45.7,40.55-68.37,60.7q-59.62,53-119.23,106c-12.77,11.34-25,11.85-34,1.49s-7.48-26.44,3.81-36.51q77.28-68.86,154.7-137.59c15.62-13.88,31.17-27.84,46.85-41.64,11-9.67,21.57-10,32.21-.52Q367.87,132.24,469,222.21c7.55,6.71,10.42,14.84,8.93,24.65-1.34,8.91-6.28,15.24-14.72,18.2-8.22,2.88-15.44.33-21.84-5.4-16.26-14.58-32.64-29-49-43.55L256.82,95.58C255,93.94,253,92.43,250.66,90.47Z" transform="translate(-23.26 -35.51)"/><path d="M108.87,134.67c0-24.1-.42-45.27.16-66.41.36-13.33,10.18-21,24.51-20.58C147,48,154.44,56.42,156,69.53c1.91,16.32-2.84,28.21-16.48,37.87C129.09,114.78,120.26,124.38,108.87,134.67Z" transform="translate(-23.26 -35.51)"/></svg>