<svg id="Layer_2" data-name="Layer 2" xmlns="http://www.w3.org/2000/svg" viewBox="0 0 478.37 444.82"><title>Line</title><path d="M489.33,213.38c3.69,28.79-5.25,59.39-18.21,84.91a167.25,167.25,0,0,1-13.84,22.63,193.84,193.84,0,0,1-19.1,22.36,479.34,479.34,0,0,1-42,37.56c-23.34,18.58-47.06,36.74-71.42,53.94-23.83,16.83-48.23,33.06-75.63,43.51-2.81,1.07-5.62,2.41-8.7,2.32-5.05-.16-10-4.7-9.54-10,.73-9.18,2.76-18.25,3.94-27.4,1.86-14.44-2.58-26.07-19.21-28.59-11.39-1.73-22.8-3.69-34-6.39-49.7-11.94-93.06-34.94-127.12-73.88-18.8-21.5-31.25-46-38.6-73.47a125.06,125.06,0,0,1-4.1-34.55c.22-11.51.95-23.45,3.65-34.68,9.87-41,33.06-73.37,65.22-99.76C98.88,77,119.23,65.58,140.93,56.54a256.79,256.79,0,0,1,60.78-17.17,344.68,344.68,0,0,1,43.53-3.49c14.52-.31,28.44.13,42.79,2.38,15.21,2.4,30.86,4.78,45.62,9.2a284.86,284.86,0,0,1,35.67,13.13,224.29,224.29,0,0,1,61.81,41,219,219,0,0,1,24.94,28.11c17.14,22.93,26.8,50.3,32.35,78.1Q489,210.56,489.33,213.38Zm-237.48,5.24A31.21,31.21,0,0,1,254,221q21.59,29.4,43.14,58.83c3.47,4.74,9.12,6.94,14.28,5.34,6.47-2,9-5.53,9.05-12.48q0-45,0-89.94c0-7.93-4.85-13-12.34-13.13S295.41,174.84,295.4,183q0,21,0,42v9.69a276.54,276.54,0,0,1-18.84-23.37c-8.87-12-17.65-24-26.54-35.88-3.79-5.09-9.7-7.07-14.86-5.22-5.9,2.11-8.72,6.25-8.72,13q0,44.73,0,89.45c0,7.84,5.08,13,12.57,13s12.51-5.05,12.51-12.92q0-24.24,0-48.47C251.54,222.66,251.71,221.09,251.85,218.62Zm110.37-23.7c11.65,0,22.46,0,33.27,0,8.44,0,13.65-4.66,13.78-12.25.13-7.41-5.33-13-13.29-13q-23-.21-46,0a13.25,13.25,0,0,0-13.14,13.2q-.12,45,0,90c0,7.77,5.14,12.75,12.86,12.77q23,0,46,0c8.49,0,13.56-4.67,13.58-12.41,0-7.43-5.48-12.66-13.57-12.73-9.5-.08-19,0-28.49,0h-4.68V241.19c1.29-.14,2.27-.33,3.25-.34,9.83,0,19.66.13,29.49-.07,8.81-.17,14.22-5.52,14-13.37-.2-7.38-5.54-11.9-14.08-11.9-9.66,0-19.33,0-29,0-2.12,0-4.05,0-4-3C362.28,206.92,362.22,201.29,362.22,194.92Zm-236.6,65.52v-6.27q0-35.71,0-71.42c0-8-4.69-13.07-12.24-13.18s-12.85,5.31-12.85,13.29q0,44.7,0,89.4c0,8.36,4.88,13.29,13.26,13.33q22.72.09,45.45,0c8.3,0,13.45-4.95,13.42-12.62s-5.24-12.51-13.52-12.53Zm58-33.07c0,15.49,0,31,0,46.45,0,7.72,7.58,13.6,15,11.48,6.48-1.86,10-5.57,10-14.51q.09-43.2,0-86.4a23.39,23.39,0,0,0-.77-4.88c-1.52-6.95-6.62-10.64-13.66-9.92-5.9.6-10.54,6-10.55,12.33Q183.59,204.65,183.6,227.37Z" transform="translate(-11.8 -35.79)"/></svg>