<?xml version="1.0" encoding="utf-8"?>
<!-- Generator: Adobe Illustrator 23.0.3, SVG Export Plug-In . SVG Version: 6.00 Build 0)  -->
<svg version="1.1" xmlns="http://www.w3.org/2000/svg" xmlns:xlink="http://www.w3.org/1999/xlink" x="0px" y="0px"
	 viewBox="0 0 500 500" style="enable-background:new 0 0 500 500;" xml:space="preserve">
<style type="text/css">
	.st0{fill:none;stroke:#000000;stroke-width:10;stroke-miterlimit:10;}
	.st1{fill:none;stroke:#000000;stroke-width:12;stroke-miterlimit:10;}
	.st2{fill:none;stroke:#000000;stroke-width:6;stroke-miterlimit:10;}
	.st3{fill:none;stroke:#000000;stroke-width:2;stroke-miterlimit:10;}
</style>
<g id="วงกลม">
	<circle class="st0" cx="250" cy="251" r="242.63"/>
</g>
<g id="งานจริง">
	<circle class="st1" cx="185.82" cy="300.5" r="38.47"/>
	<path d="M211.3,297.55l-44.77,12.44c-1.06,0.3-1.96-0.28-3-1.24l-4.6-3.51c-0.59-0.98,0.04-1.42,1.1-1.72l44.5-12.48
		c1.06-0.3,1.41,0.05,3,1.24l4.71,3.51C213.8,297.07,212.36,297.25,211.3,297.55z"/>
	<circle class="st2" cx="182.55" cy="284.05" r="6.88"/>
	<circle class="st2" cx="189.43" cy="316.95" r="6.88"/>
	<g>
		<path d="M205.43,215.02c0.53-0.55,0.43-1.17-0.28-1.86l-0.29-0.28l-1.66,1.75l0.29,0.28C204.2,215.59,204.85,215.62,205.43,215.02
			z"/>
		<path d="M219.88,234.23c0.59-0.12,1.13-0.44,1.62-0.95c0.51-0.53,0.82-1.1,0.92-1.7c0.12-0.68-0.07-1.27-0.58-1.75
			c-0.49-0.47-1.08-0.62-1.77-0.44c-0.58,0.15-1.12,0.48-1.61,1c-0.5,0.52-0.8,1.07-0.9,1.64c-0.12,0.67,0.06,1.24,0.56,1.71
			C218.62,234.2,219.2,234.37,219.88,234.23z"/>
		<path d="M213.1,222.4c0.55-0.58,0.51-1.18-0.12-1.78l-0.23-0.22l-1.62,1.7l0.21,0.2C211.98,222.93,212.57,222.96,213.1,222.4z"/>
		<path d="M241.51,249.8c-0.58,0.15-1.12,0.48-1.61,1c-0.5,0.52-0.8,1.07-0.9,1.64c-0.12,0.67,0.06,1.24,0.56,1.71
			c0.49,0.47,1.08,0.63,1.76,0.49c0.59-0.12,1.13-0.44,1.62-0.95c0.51-0.53,0.82-1.1,0.92-1.7c0.12-0.68-0.07-1.27-0.58-1.75
			C242.78,249.77,242.19,249.63,241.51,249.8z"/>
		<path d="M330.54,238.09l-13.55-13.55c-2.87-4.1-3.28-9.99-1.04-15c1.29-2.45,2.24-5.1,2.79-7.89c0,0,0.01-0.01,0.01-0.01l0,0
			c0.37-1.86,0.56-3.77,0.56-5.74c0-10.67-5.69-20.01-14.19-25.15c-4.37,5.34-8.91,10.52-12.8,16.23c4.19,1.32,7.23,5.24,7.23,9.87
			c0,5.72-4.64,10.35-10.35,10.35s-10.35-4.64-10.35-10.35c0-5.12,3.19-10.13,8.08-10.96c0.05-0.12,0.1-0.23,0.18-0.35
			c4.04-6.22,8.9-11.81,13.61-17.52c-3.48-1.45-6.77-1.5-10.78-1.5c-5.65,0-10.93,1.6-15.41,4.37c-7.63,2.9-10.2,0.05-12.93-1.75
			l-13.32-13.33c-3.51-3.51-9.21-3.51-12.73,0L96.59,294.76c-3.51,3.51-3.51,9.21,0,12.73l82.28,82.28c3.51,3.51,9.21,3.51,12.73,0
			l138.94-138.94C334.06,247.31,334.06,241.61,330.54,238.09z M234.44,235.81l-3.93,6.36l0.07,0.07c0.63-0.52,1.12-0.9,1.47-1.14
			l4.69-3.1l2.99,2.85l-8.27,11.38l-2.84-2.71l4.85-5.93l-0.04-0.04c-0.25,0.19-0.63,0.46-1.15,0.82l-5.5,3.39l-1.73-1.64l3.02-5.29
			c0.19-0.33,0.53-0.81,1.01-1.42l-0.09-0.09c-0.1,0.11-0.51,0.48-1.23,1.13l-4.45,4l-2.86-2.73l10.95-8.83L234.44,235.81z
			 M225,226.52c1.39,1.32,1.99,2.92,1.82,4.79c-0.16,1.72-0.91,3.3-2.27,4.72c-1.39,1.45-2.92,2.3-4.6,2.53
			c-1.83,0.26-3.45-0.29-4.87-1.64c-1.4-1.33-2.01-2.93-1.84-4.77c0.16-1.69,0.93-3.25,2.31-4.7c1.35-1.42,2.89-2.26,4.6-2.51
			C222,224.68,223.62,225.2,225,226.52z M216.06,218.3c1.08,1.03,1.62,2.13,1.61,3.31c-0.01,1.17-0.54,2.31-1.59,3.41
			c-0.66,0.7-1.28,1.13-1.84,1.3c-0.64,0.21-1.37,0.15-2.22-0.17l-0.08,0.08c0.01,0.33,0.01,0.53,0,0.6
			c-0.01,0.16-0.04,0.31-0.08,0.47l-1.37,4.97l-3.41-3.25l1.8-4.46l-0.06-0.06l-3.08,3.24l-2.88-2.75l9.62-10.1L216.06,218.3z
			 M204.64,207.41l3.73,3.56c1.08,1.03,1.58,2.18,1.48,3.44c-0.08,1.17-0.65,2.31-1.71,3.42c-0.9,0.94-1.84,1.51-2.82,1.72
			c-1.13,0.24-2.15-0.07-3.05-0.93l-1.52-1.45l-2.89,3.03l-2.84-2.71L204.64,207.41z M185.82,352.42
			c-28.67,0-51.92-23.25-51.92-51.92s23.25-51.92,51.92-51.92c28.67,0,51.92,23.25,51.92,51.92S214.49,352.42,185.82,352.42z
			 M236.51,257.35c-1.4-1.33-2.01-2.93-1.84-4.77c0.16-1.69,0.93-3.25,2.31-4.7c1.35-1.42,2.89-2.26,4.6-2.51
			c1.86-0.27,3.48,0.25,4.86,1.57c1.39,1.32,1.99,2.92,1.82,4.79c-0.16,1.72-0.92,3.3-2.27,4.72c-1.39,1.45-2.92,2.3-4.6,2.53
			C239.54,259.24,237.92,258.7,236.51,257.35z M243.3,263.51l6.59-6.92l-1.74-1.46l3.12-3.28l6.22,5.93l-3.12,3.28l-1.53-1.65
			l-6.59,6.92L243.3,263.51z M248.68,268.63l9.62-10.1l2.94,2.8l-9.62,10.1L248.68,268.63z M257.03,276.9
			c-1.4-1.33-2.01-2.93-1.84-4.77c0.16-1.69,0.93-3.25,2.31-4.7c1.35-1.42,2.89-2.26,4.6-2.51c1.86-0.27,3.48,0.25,4.86,1.57
			c1.39,1.32,1.99,2.92,1.82,4.79c-0.16,1.72-0.92,3.3-2.27,4.72c-1.39,1.45-2.92,2.3-4.6,2.53
			C260.06,278.79,258.44,278.24,257.03,276.9z M270.84,289.75l-2.8-2.67l2.45-7.77l-0.1-0.1c-0.65,0.93-1.23,1.66-1.73,2.18
			l-3.13,3.29l-2.83-2.7l9.62-10.1l2.84,2.7l-2.68,8.12l0.08,0.08c0.81-1.15,1.55-2.07,2.21-2.77l2.89-3.03l2.8,2.67L270.84,289.75z
			"/>
		<path d="M262.03,269.35c-0.58,0.15-1.12,0.48-1.61,1c-0.5,0.52-0.8,1.07-0.9,1.64c-0.12,0.67,0.06,1.24,0.56,1.71
			c0.49,0.47,1.08,0.63,1.76,0.49c0.59-0.12,1.13-0.44,1.62-0.95c0.51-0.53,0.82-1.1,0.92-1.7c0.12-0.68-0.07-1.27-0.58-1.75
			C263.3,269.32,262.71,269.18,262.03,269.35z"/>
	</g>
	<path class="st3" d="M298.49,192.07c0,0-6.95,4.71-9.01,0.18c0,0-2.18-2.82,4.24-10.94c0,0,23.12-30.18,52.59-67.59
		c0,0,24.53-30.88,49.94-12.88c0,0,18.53,13.94,4.59,34.76c0,0-9.18,12.35-28.06,18.88c0,0-31.24,9.18-42.88,14.82
		C329.91,169.3,303.43,182.36,298.49,192.07z"/>
</g>
</svg>
