<svg xmlns="http://www.w3.org/2000/svg" viewBox="0 0 495.26 495.26"><defs><style>.cls-1{fill:none;stroke:#000;stroke-miterlimit:10;stroke-width:10px;}.cls-2{font-size:205.39px;font-family:PSLSirintrExtraAD, PSL Sirintr ExtraAD;}.cls-2,.cls-3{fill:#231f20;}</style></defs><title>Reward</title><g id="วงกลม"><circle class="cls-1" cx="247.63" cy="247.63" r="242.63"/></g><g id="Layer_3" data-name="Layer 3"><path d="M248,139c-62,0-112.21,17.47-112.21,39v29.66c0,21.55,50.24,39,112.21,39s112.22-17.46,112.22-39V178C360.19,156.49,310,139,248,139Zm-86.7,89.32a72.83,72.83,0,0,1-15-8.59v-29.1a71.93,71.93,0,0,0,15,8.59Zm22,7.4c-5.36-1.37-10.37-2.91-15-4.59V202.06c4.62,1.68,9.63,3.22,15,4.59Zm22,4.38c-5.2-.77-10.22-1.68-15-2.71v-29.1c4.78,1,9.8,1.94,15,2.72Zm135.11-14.53a107.39,107.39,0,0,1-15,6.36V202.86a108.62,108.62,0,0,0,15-6.35Zm-16.14-28.65C304.06,204,277,207.87,248,207.87S191.9,204,171.64,196.94C153.2,190.54,145,182.83,145,178s8.25-12.5,26.69-18.92c20.26-7,47.37-10.92,76.33-10.92s56.09,3.89,76.34,10.92C342.75,165.53,351,173.23,351,178S342.75,190.54,324.31,196.94Z" transform="translate(-2.37 -3.37)"/><path d="M248,256.18c-58,0-105.79-15.32-111.61-35a14.39,14.39,0,0,0-.6,4v29.65c0,21.55,50.24,39,112.21,39s112.22-17.48,112.22-39V225.26a14,14,0,0,0-.6-4C353.78,240.86,306,256.18,248,256.18Zm-86.7,19.38a71.93,71.93,0,0,1-15-8.59V237.88a71.93,71.93,0,0,0,15,8.59Zm22,7.41c-5.36-1.37-10.37-2.91-15-4.59V249.29c4.62,1.68,9.63,3.21,15,4.58Zm22,4.37c-5.2-.77-10.22-1.68-15-2.71V255.54c4.78,1,9.8,1.94,15,2.72Zm135.11-14.52a107.39,107.39,0,0,1-15,6.36v-29.1a108.62,108.62,0,0,0,15-6.35Z" transform="translate(-2.37 -3.37)"/><path d="M248,304.64c-58,0-105.79-15.34-111.61-35a14.39,14.39,0,0,0-.6,4.05v29.65c0,21.56,50.24,39,112.21,39s112.22-17.47,112.22-39V273.7a14,14,0,0,0-.6-4.05C353.78,289.3,306,304.64,248,304.64ZM161.27,324a71.93,71.93,0,0,1-15-8.59V286.32a72.38,72.38,0,0,0,15,8.59Zm22,7.41c-5.36-1.37-10.37-2.91-15-4.59v-29.1a153.9,153.9,0,0,0,15,4.59Zm22,4.37c-5.2-.77-10.22-1.67-15-2.71V304c4.78,1,9.8,1.94,15,2.72Zm135.11-14.52a109.83,109.83,0,0,1-15,6.36V298.53a109.83,109.83,0,0,0,15-6.36Z" transform="translate(-2.37 -3.37)"/><path d="M248,349.55c-58,0-105.79-15.34-111.61-35a14.39,14.39,0,0,0-.6,4.05v29.65c0,21.56,50.24,39,112.21,39s112.22-17.47,112.22-39V318.61a14,14,0,0,0-.6-4.05C353.78,334.21,306,349.55,248,349.55Zm-86.7,19.36a71.93,71.93,0,0,1-15-8.59V331.23a71.93,71.93,0,0,0,15,8.58Zm22,7.4c-5.36-1.36-10.37-2.9-15-4.58v-29.1a153.9,153.9,0,0,0,15,4.59Zm22,4.38c-5.2-.77-10.22-1.67-15-2.71V348.89c4.78,1,9.8,1.94,15,2.72Zm135.11-14.52a109.83,109.83,0,0,1-15,6.36V343.44a109.83,109.83,0,0,0,15-6.36Z" transform="translate(-2.37 -3.37)"/><text class="cls-2" transform="translate(342.62 163.71)">+</text><path class="cls-3" d="M283.52,169.68q1.78,6.8-5.76,11.43t-19.23,4.82l-8.41.14L255,203.19l-14.41.24-14-48.78,19.62-.33q15.35-.25,25.32,3.82T283.52,169.68Zm-14.8.25q-1.07-3.74-6.36-5.66a37.28,37.28,0,0,0-13.31-1.8l-5.68.09,4.41,15.36,4.9-.09Q270.76,177.53,268.72,169.93Z" transform="translate(-2.37 -3.37)"/></g></svg>