<?xml version="1.0" standalone="no"?>
<!DOCTYPE svg PUBLIC "-//W3C//DTD SVG 20010904//EN"
 "http://www.w3.org/TR/2001/REC-SVG-20010904/DTD/svg10.dtd">
<svg version="1.0" xmlns="http://www.w3.org/2000/svg"
 width="500.000000pt" height="500.000000pt" viewBox="0 0 500.000000 500.000000"
 preserveAspectRatio="xMidYMid meet">
<metadata>
Created by potrace 1.16, written by Peter Selinger 2001-2019
</metadata>
<g transform="translate(0.000000,500.000000) scale(0.100000,-0.100000)"
fill="#000000" stroke="none">
<path d="M2260 4960 c-581 -61 -1107 -309 -1514 -716 -380 -380 -619 -858
-703 -1404 -24 -161 -24 -539 0 -700 84 -546 323 -1024 703 -1404 380 -380
858 -619 1404 -703 161 -24 539 -24 700 0 546 84 1024 323 1404 703 380 380
619 858 703 1404 24 161 24 539 0 700 -84 546 -323 1024 -703 1404 -377 377
-860 620 -1394 701 -124 19 -477 28 -600 15z m485 -110 c1119 -124 1991 -996
2115 -2115 13 -116 13 -374 0 -490 -124 -1119 -996 -1991 -2115 -2115 -116
-13 -374 -13 -490 0 -1119 124 -1991 996 -2115 2115 -13 116 -13 374 0 490
124 1112 993 1988 2100 2114 107 12 399 13 505 1z"/>
<path d="M1240 3731 c-131 -42 -235 -149 -274 -280 -51 -174 18 -372 165 -470
85 -57 150 -74 263 -69 114 5 200 41 276 118 77 76 113 162 118 276 5 113 -12
178 -69 263 -99 149 -304 218 -479 162z m255 -69 c107 -42 181 -122 216 -236
82 -263 -174 -519 -437 -437 -161 49 -259 182 -258 347 2 161 126 310 288 344
52 11 138 3 191 -18z"/>
<path d="M1257 3635 c-90 -34 -172 -122 -197 -210 -21 -74 -9 -191 25 -254 81
-147 266 -208 420 -138 78 36 127 85 161 161 71 156 11 340 -138 421 -46 25
-66 30 -143 32 -61 2 -102 -2 -128 -12z m63 -121 c0 -11 5 -14 18 -9 58 22
101 14 122 -25 8 -15 6 -21 -11 -31 -18 -9 -24 -8 -31 5 -9 16 -63 23 -71 9
-3 -5 3 -28 13 -53 19 -47 18 -47 85 -34 41 8 81 -25 96 -78 9 -36 8 -45 -8
-66 -11 -14 -33 -33 -51 -41 -21 -11 -30 -21 -26 -33 7 -23 -16 -35 -31 -15
-10 14 -17 14 -48 5 -44 -14 -78 -2 -103 37 -19 28 -18 30 13 39 16 5 23 2 28
-14 5 -15 15 -20 40 -20 19 0 36 4 39 9 5 7 -27 97 -38 108 -2 2 -17 -2 -35
-8 -44 -15 -78 -4 -101 34 -37 61 -21 111 48 146 12 7 20 16 17 22 -8 13 3 29
21 29 8 0 14 -7 14 -16z"/>
<path d="M2708 3520 c-25 -7 -89 -55 -299 -220 -53 -41 -111 -86 -129 -100
-18 -14 -40 -32 -50 -40 -10 -8 -30 -25 -46 -37 -259 -198 -301 -233 -280
-233 2 0 35 7 71 15 76 18 76 18 395 182 129 67 309 159 400 206 91 46 165 89
165 94 0 20 -87 111 -119 127 -37 17 -66 19 -108 6z"/>
<path d="M3005 3341 c-115 -59 -309 -159 -430 -221 -219 -112 -250 -130 -227
-130 19 0 1105 239 1110 244 11 12 -87 172 -118 194 -64 43 -100 34 -335 -87z"/>
<path d="M3620 3183 c-127 -21 -2003 -439 -2030 -452 -23 -11 -43 -32 -58 -62
l-22 -45 169 -769 168 -769 34 -28 c18 -15 47 -30 64 -33 33 -6 2040 432 2090
456 31 15 61 58 68 99 4 22 -74 404 -84 415 -2 2 -186 -37 -409 -86 -223 -49
-425 -89 -450 -89 -82 0 -164 55 -197 130 -17 39 -70 268 -79 342 -10 82 37
178 108 218 22 12 194 55 450 111 227 50 415 93 417 95 7 7 -71 348 -90 392
-14 33 -28 47 -61 62 -24 11 -47 19 -53 18 -5 0 -21 -3 -35 -5z"/>
<path d="M3457 2545 c-229 -51 -425 -99 -435 -106 -25 -20 -46 -50 -55 -79 -8
-28 56 -347 80 -393 18 -37 69 -67 113 -67 19 0 224 41 455 92 553 121 527
100 463 396 -21 95 -45 184 -54 197 -20 30 -73 55 -116 54 -18 -1 -221 -43
-451 -94z m-69 -254 c8 -4 18 -27 23 -50 14 -64 -6 -91 -78 -104 -42 -8 -80
24 -89 75 -9 52 27 88 88 88 24 0 49 -4 56 -9z"/>
</g>
</svg>
