<svg id="Layer_2" data-name="Layer 2" xmlns="http://www.w3.org/2000/svg" viewBox="0 0 466.24 466.07"><title>website</title><path d="M22.23,292.56C23.75,301,27,308.38,34.14,313.71c2.27,1.69,4,4.1,6.12,6,5.23,4.67,10.32,9.53,15.88,13.79a82.9,82.9,0,0,0,23.38,12.17,218.12,218.12,0,0,1-17.88-42.11,180,180,0,0,1-7.57-45H120.9c1.9,15.38,3.77,30.53,5.68,46,5.92-3,11.38-5.87,17-8.44,3-1.37,3.86-3.46,3.46-6.43-.65-4.76-1.42-9.5-1.89-14.27-.57-5.74-.87-11.5-1.3-17.47h3.72q35.08,0,70.17,0a12.9,12.9,0,0,0,5.35-1q17.24-8.24,34.31-16.79a3.62,3.62,0,0,0,1.64-2.63c.19-3.69.08-7.39.08-11.09q0-39.79,0-79.6c0-1.4-.48-2.92,1.93-3.12,12-1,24.09-2.2,36.14-3.36,12.4-1.19,24.81-2.39,37.21-3.7,1.85-.19,2.77.17,3.52,2,9.44,23,14.88,46.88,17.76,71.46.29,2.48.64,5,1.05,8.1,5.93-6.84,11.46-13,16.72-19.46a8,8,0,0,0,1.56-5.22,52.72,52.72,0,0,0-2-10.59c-4.51-15-9.2-30-13.84-44.91-.72-2.35-1.5-4.68-2.21-6.89,12-4,23.72-7.88,35.35-12,3.87-1.37,7-.82,9.91,1.93.92.86,1.94,1.6,3.12,2.57a49.18,49.18,0,0,0-.67-21c-3.84-16-12.32-29.52-23-41.79-6.44-7.39-13-14.4-22.05-19-30.47-15.59-62.48-25.48-96.75-27.23a217.22,217.22,0,0,0-63.5,6C129.3,38,76.73,77.94,43.25,142.19a222.7,222.7,0,0,0-24.39,85.66C18.45,232.9,18.15,238,17.8,243v9.43a20.78,20.78,0,0,1,.38,2.71A228.2,228.2,0,0,0,22.23,292.56ZM384.1,102c-5.13,1.44-9.85,2.8-14.6,4.09-5.6,1.52-11.24,2.88-16.82,4.49-3.75,1.08-6.29-.08-8.5-3.22-9.95-14.11-20-28.13-30.05-42.18-1.23-1.71-2.54-3.37-3.82-5C338,68.3,362.34,82.35,384.1,102ZM259.21,50.71c8.52,0,16.11,1.22,22.72,7.56,16.17,15.52,30.49,32.42,41.82,51.79.93,1.59,1.74,3.26,2.58,4.9a12.72,12.72,0,0,1,.48,1.33l-67.6,7.54ZM239.08,211.17V238H143.71c0-1,0-2,0-3,1-25.91,4.22-51.49,11.64-76.41,1.87-6.26,4-12.46,6.15-18.63,1.63-4.64,3.58-5.51,8.49-4.91,13.65,1.67,27.31,3.23,41,4.78,8.71,1,17.43,1.94,26.16,2.76,2.36.22,2,1.72,2,3.15ZM214.15,59.27c4.54-5,9.89-8.2,17-7.84a61.52,61.52,0,0,0,7.66-.57V124l-66.41-7.92a184.33,184.33,0,0,1,22.74-35.58C201.15,73.18,207.76,66.31,214.15,59.27Zm-28.78,2.32c-.87,1.41-1.36,2.26-1.9,3.08q-13.6,20.7-27.2,41.39c-2.73,4.16-4.34,5.06-9.25,3.84-9.54-2.39-19-5.05-29.07-7.75A193.89,193.89,0,0,1,185.37,61.59ZM54.39,229c2.8-22.44,7.87-44.25,17.58-64.83A203.27,203.27,0,0,1,101.23,119c1.71-2,3.58-3,6.31-1.94,12,4.51,24,8.92,36,13.38a5.76,5.76,0,0,1,.87.58c-14.36,34.09-21.57,69.76-22.95,106.85H53.16C53.57,234.87,54,231.92,54.39,229Z" transform="translate(-17.8 -14.36)"/><path d="M297.49,475.64A226.85,226.85,0,0,0,401,425.46c48.91-41.38,76-94.35,82-157.95a213.28,213.28,0,0,0-4.85-71c-2-8.22-4.48-16.31-6.94-25.14-1.94,2.14-3.23,3.67-4.64,5.09-4.27,4.33-8.26,9-13,12.84-9.08,7.35-11.05,13.38-8.41,24.74,1.8,7.74,2.43,15.76,3.6,23.76a17.07,17.07,0,0,1-1.79.27q-32.17,0-64.35,0c-1.57,0-2-.59-2.17-2.07-.24-2.42-.75-4.82-1.15-7.23l-22.06,1.62v8H354.1q-14.57,0-29.12,0c-9.52,0-19.05,0-28.57.18-1.62,0-4.27.86-4.64,1.94-1.92,5.6-3.26,11.39-4.91,17.53h70.82c-.55,7.49-.82,14.69-1.63,21.83a285.67,285.67,0,0,1-21.43,79.87c-1.85,4.38-3.45,5.16-8.2,4.48-5.12-.74-10.25-1.38-15.38-2-14.75-1.78-29.51-3.49-44.26-5.3-4-.48-5.07.13-6.08,4.12Q254.34,386.05,248,411c-1.7,6.68-3.43,13.35-5.16,20.08l-3.85-.51v13.84c-2.91-.19-5.47-.5-8-.5a17.87,17.87,0,0,1-15.16-7.63c-6-8-12.45-15.59-18.72-23.36-1.35-1.67-3-3-5.23-2.29-5.72,1.92-11.36,4.07-17.27,6.22,3.54,5.05,6.84,9.71,10.08,14.43a7.67,7.67,0,0,1,.65,2.16,7.67,7.67,0,0,1-2.23-.26c-5.89-2.64-11.87-5.11-17.59-8.1s-11.31-3.18-17.44-2.17c-12.17,2-24.41,2.66-36.67.52-4.79-.83-9.59-1.58-14.9-2.46a10.78,10.78,0,0,0,1.16,1.4c5.93,4.86,11.66,10,17.86,14.49,32.61,23.63,69.08,37.37,109,42,5.4.62,10.81,1.09,16.22,1.63h20.53c1.27-.18,2.54-.36,3.81-.52C275.93,478.52,286.84,477.76,297.49,475.64Zm83-217.3H448c-.31,4.42-.4,8.72-.94,13-4.32,34.38-16.6,65.63-37.34,93.45-4.18,5.62-8.87,10.87-13.33,16.29A6,6,0,0,1,389,383c-11.23-4.17-22.49-8.25-33.74-12.37-.33-.12-.64-.32-1.24-.62C370,334.52,379.15,297.45,380.49,258.34ZM342.14,393.2c2.66-4.16,3.38-4.4,8.17-3,8.38,2.52,16.78,5,25.17,7.48.7.2,1.39.45,2.44.79-18.4,15.26-38.43,27-61.13,34.31,1.58-2.48,3.14-5,4.73-7.45Q331.83,409.28,342.14,393.2Zm-82.9,51.86V375.82c4.63.55,9.17,1.06,13.69,1.63,15.56,1.95,31.12,3.94,46.68,5.87,3.5.43,3.93,1.17,1.94,4.08-8.92,13-17.75,26.11-26.87,39-3,4.2-6.77,7.81-10.14,11.72a14.31,14.31,0,0,1-8.74,5C270.43,443.91,265,444.38,259.24,445.06Z" transform="translate(-17.8 -14.36)"/><path d="M143,344.49c-6.21,8.73-13.78,15.2-24.2,17.7a74.91,74.91,0,0,1-29.71.95c-15.45-2.5-29.07-9.29-41.73-18.22-3.74-2.64-7.41-5.37-11.83-8.57.6,2.57.95,4.35,1.44,6.08,10.79,38,52.94,76.69,108.83,66.26a197,197,0,0,0,53.12-17.52c3.26-1.65,6-1.36,9,.68,7.81,5.26,15.78,10.28,23.69,15.39.65.41,1.36.71,2.18,1.14,13.62-53.56,27.14-106.77,40.8-160.53l-161,79.09Z" transform="translate(-17.8 -14.36)"/><path d="M427.36,78.24a117,117,0,0,0-27.92-16l-.48.55a29.07,29.07,0,0,1,2.3,1.81,59.66,59.66,0,0,1,16.55,28.92c3.09,12.3,2.6,24.7,1.15,37.14a144.48,144.48,0,0,1-31.67,75.49q-2.84,3.52-5.65,7.06l.43.76c4.83-1.69,9.74-3.19,14.49-5.11,26.55-10.73,48.17-28.1,66.37-49.92,1.3-1.56,1.75-4.27,1.68-6.42a92.11,92.11,0,0,0-1.43-12.36C459,115.07,447.68,94,427.36,78.24Z" transform="translate(-17.8 -14.36)"/></svg>