<?xml version="1.0" encoding="utf-8"?>
<!-- Generator: Adobe Illustrator 23.0.3, SVG Export Plug-In . SVG Version: 6.00 Build 0)  -->
<svg version="1.1" xmlns="http://www.w3.org/2000/svg" xmlns:xlink="http://www.w3.org/1999/xlink" x="0px" y="0px"
	 viewBox="0 0 500 500" style="enable-background:new 0 0 500 500;" xml:space="preserve">
<style type="text/css">
	.st0{fill:none;stroke:#000000;stroke-width:10;stroke-miterlimit:10;}
	.st1{fill:none;}
	.st2{fill:#010101;}
	.st3{fill:#070707;}
</style>
<g id="วงกลม">
	<circle class="st0" cx="250" cy="251" r="242.63"/>
</g>
<g id="งานจริง">
	<g>
		<path class="st1" d="M241.86,90.09h17.6c0.73,0,1.39,0.36,1.8,0.96l0.53-1.09h-22.27l0.55,1.07
			C240.48,90.44,241.14,90.09,241.86,90.09z"/>
		<path class="st2" d="M288.22,124.11c0.37,0.11,0.76,0.17,1.15,0.17c1.77,0,3.36-1.19,3.87-2.89c0.31-1.03,0.19-2.12-0.32-3.07
			c-0.51-0.95-1.37-1.64-2.4-1.94c-0.38-0.11-0.76-0.17-1.15-0.17c-1.77,0-3.36,1.19-3.87,2.89c-0.31,1.03-0.19,2.12,0.32,3.07
			C286.33,123.11,287.19,123.8,288.22,124.11z"/>
		<path class="st2" d="M370.59,189.98c0.67,0,1.33-0.17,1.92-0.49c1.95-1.06,2.68-3.52,1.62-5.47c-0.71-1.3-2.07-2.11-3.55-2.11
			c-0.67,0-1.33,0.17-1.92,0.49c-1.95,1.06-2.68,3.52-1.62,5.47C367.75,189.17,369.11,189.98,370.59,189.98z"/>
		<path class="st2" d="M380.41,293.71c0.37,0.11,0.76,0.17,1.15,0.17c1.77,0,3.36-1.19,3.87-2.89c0.63-2.13-0.59-4.38-2.72-5.01
			c-0.37-0.11-0.76-0.17-1.15-0.17c-1.77,0-3.36,1.19-3.87,2.89c-0.31,1.03-0.19,2.12,0.32,3.07
			C378.53,292.72,379.38,293.41,380.41,293.71z"/>
		<path class="st2" d="M251.02,117.78c-0.02,0-0.04,0-0.06,0c-2.08,0-4-1.17-4.95-3.02l-5.77-11.23
			c-60.8,4.34-114,46.55-131.47,105.65c-23.13,78.24,21.69,160.71,99.93,183.84c13.72,4.06,27.85,6.11,42.02,6.11
			c65.04,0,123.36-43.61,141.83-106.04c23.13-78.24-21.7-160.71-99.93-183.84c-10.23-3.03-20.7-4.94-31.24-5.71l-5.41,11.11
			C255.04,116.55,253.13,117.76,251.02,117.78z M182.15,125.11c1.01-0.55,2.16-0.84,3.31-0.84c2.55,0,4.89,1.39,6.1,3.63
			c1.83,3.36,0.58,7.58-2.78,9.41c-1.01,0.55-2.16,0.84-3.31,0.84c-2.55,0-4.88-1.39-6.1-3.63
			C177.54,131.16,178.79,126.94,182.15,125.11z M117.79,219.09c-1.78-0.53-3.24-1.71-4.13-3.34c-0.88-1.63-1.08-3.5-0.56-5.28
			c0.87-2.93,3.6-4.97,6.65-4.97c0.66,0,1.33,0.1,1.97,0.29c1.78,0.53,3.24,1.71,4.13,3.34c0.88,1.63,1.08,3.5,0.56,5.28
			c-0.87,2.93-3.6,4.97-6.65,4.97C119.09,219.37,118.43,219.28,117.79,219.09z M134.04,322.43c-1.02,0.55-2.16,0.84-3.31,0.84
			c-2.55,0-4.88-1.39-6.1-3.62c-1.83-3.36-0.58-7.58,2.78-9.41c1.02-0.55,2.16-0.84,3.31-0.84c2.55,0,4.89,1.39,6.1,3.63
			C138.65,316.38,137.4,320.6,134.04,322.43z M218.6,384.01c-0.87,2.93-3.6,4.97-6.65,4.97c-0.66,0-1.33-0.1-1.97-0.29
			c-3.67-1.09-5.77-4.95-4.69-8.62c0.87-2.93,3.6-4.97,6.65-4.97c0.66,0,1.33,0.1,1.97,0.29
			C217.58,376.47,219.69,380.34,218.6,384.01z M319.16,377.17c-1.02,0.55-2.16,0.84-3.31,0.84c-2.55,0-4.89-1.39-6.1-3.62
			c-1.83-3.36-0.58-7.58,2.78-9.41c1.02-0.55,2.16-0.84,3.31-0.84c2.55,0,4.89,1.39,6.1,3.62
			C323.77,371.12,322.52,375.34,319.16,377.17z M383.52,283.19c3.67,1.09,5.77,4.95,4.69,8.62c-0.87,2.93-3.6,4.97-6.65,4.97
			c-0.66,0-1.33-0.1-1.97-0.29c-1.78-0.53-3.24-1.71-4.13-3.34c-0.89-1.63-1.08-3.5-0.56-5.28c0.87-2.93,3.6-4.97,6.65-4.97
			C382.22,282.91,382.88,283,383.52,283.19z M367.27,179.85c1.02-0.55,2.16-0.84,3.31-0.84c2.55,0,4.89,1.39,6.1,3.63
			c1.83,3.36,0.58,7.58-2.78,9.41c-1.02,0.55-2.16,0.84-3.31,0.84c-2.55,0-4.88-1.39-6.1-3.63
			C362.67,185.9,363.91,181.68,367.27,179.85z M282.71,118.27c0.87-2.93,3.6-4.97,6.65-4.97c0.66,0,1.33,0.1,1.97,0.29
			c1.78,0.53,3.24,1.71,4.13,3.34c0.89,1.63,1.08,3.5,0.56,5.28c-0.87,2.93-3.6,4.97-6.65,4.97c-0.66,0-1.33-0.1-1.97-0.29
			c-1.78-0.53-3.24-1.71-4.13-3.34C282.38,121.92,282.18,120.05,282.71,118.27z M286.1,131.28c32.02,9.47,58.43,30.84,74.37,60.17
			c15.94,29.33,19.51,63.12,10.05,95.14c-7.8,26.38-23.6,48.92-45.7,65.18c-21.38,15.74-47.7,24.4-74.1,24.4
			c-11.97,0-23.91-1.74-35.49-5.16c-32.02-9.47-58.43-30.84-74.37-60.17c-15.94-29.33-19.51-63.12-10.04-95.13
			c7.8-26.38,23.6-48.92,45.7-65.18c21.38-15.74,47.7-24.4,74.11-24.4C262.57,126.12,274.51,127.85,286.1,131.28z"/>
		<path class="st2" d="M120.9,208.56c-0.37-0.11-0.76-0.17-1.15-0.17c-1.77,0-3.36,1.19-3.87,2.89c-0.31,1.03-0.19,2.12,0.32,3.07
			c0.51,0.95,1.37,1.64,2.4,1.94c0.37,0.11,0.76,0.17,1.15,0.17c1.77,0,3.36-1.19,3.87-2.89c0.31-1.03,0.19-2.12-0.32-3.07
			C122.78,209.56,121.93,208.87,120.9,208.56z"/>
		<path class="st2" d="M213.09,378.17c-0.37-0.11-0.76-0.17-1.15-0.17c-1.77,0-3.36,1.19-3.87,2.89c-0.63,2.13,0.59,4.38,2.72,5.01
			c0.37,0.11,0.76,0.17,1.15,0.17c1.77,0,3.36-1.19,3.87-2.89C216.45,381.05,215.23,378.8,213.09,378.17z"/>
		<path class="st2" d="M185.47,135.24c0.67,0,1.33-0.17,1.92-0.49c1.95-1.06,2.68-3.52,1.62-5.47c-0.71-1.3-2.07-2.11-3.55-2.11
			c-0.67,0-1.33,0.17-1.92,0.49c-1.95,1.06-2.68,3.52-1.62,5.47C182.63,134.43,183.99,135.24,185.47,135.24z"/>
		<path class="st2" d="M250.89,112.08C250.89,112.08,250.89,112.08,250.89,112.08l0.06,0.14l0.07-0.15c-0.04,0-0.07,0.02-0.11,0.02
			C250.91,112.08,250.9,112.08,250.89,112.08z"/>
		<path class="st2" d="M130.72,312.3c-0.67,0-1.33,0.17-1.92,0.49c-1.95,1.06-2.68,3.52-1.62,5.47c0.71,1.3,2.07,2.11,3.55,2.11
			c0.67,0,1.33-0.17,1.92-0.49c1.95-1.06,2.68-3.52,1.62-5.47C133.56,313.1,132.2,312.3,130.72,312.3z"/>
		<path class="st2" d="M315.84,367.04c-0.67,0-1.33,0.17-1.92,0.49c-1.95,1.06-2.68,3.52-1.62,5.47c0.71,1.3,2.07,2.11,3.55,2.11
			c0.67,0,1.33-0.17,1.92-0.49c1.95-1.06,2.68-3.52,1.62-5.47C318.68,367.84,317.32,367.04,315.84,367.04z"/>
		<path class="st2" d="M395.33,293.92c23.59-79.77-22.12-163.86-101.89-187.45c-10.06-2.98-20.35-4.88-30.71-5.72l-0.68,1.39
			c10.3,0.8,20.67,2.67,30.97,5.72c79.13,23.4,124.31,106.52,100.91,185.65c-23.4,79.13-106.52,124.31-185.65,100.91
			c-79.13-23.4-124.31-106.52-100.91-185.65c18.11-61.25,72.01-102.15,132.14-106.66l-0.72-1.4c-27.83,2.24-55.02,12.33-77.65,28.97
			c-26.67,19.63-45.75,46.83-55.16,78.67c-23.59,79.77,22.12,163.86,101.89,187.45c13.98,4.13,28.4,6.23,42.84,6.23
			c31.87,0,63.63-10.46,89.45-29.45C366.84,352.96,385.91,325.76,395.33,293.92z"/>
		<path class="st2" d="M292.61,109.25c78.24,23.13,123.07,105.61,99.93,183.84c-18.46,62.44-76.78,106.04-141.83,106.04
			c-14.17,0-28.3-2.06-42.02-6.11c-78.24-23.13-123.07-105.61-99.93-183.84c17.48-59.1,70.67-101.31,131.47-105.65l-0.73-1.42
			c-60.13,4.51-114.02,45.41-132.14,106.66c-23.4,79.13,21.78,162.25,100.91,185.65c79.13,23.4,162.25-21.78,185.65-100.91
			c23.4-79.13-21.78-162.25-100.91-185.65c-10.3-3.05-20.67-4.92-30.97-5.72l-0.68,1.4C271.91,104.32,282.38,106.23,292.61,109.25z"
			/>
		<path class="st2" d="M289.34,230.11l68.49-37.23c-0.48-0.89-0.97-1.76-1.48-2.63c-0.25-0.43-0.51-0.86-0.76-1.29
			c-0.25-0.42-0.5-0.85-0.76-1.27c-0.34-0.57-0.7-1.13-1.05-1.69c-0.17-0.27-0.33-0.54-0.5-0.8c-0.42-0.65-0.85-1.3-1.28-1.95
			c-0.11-0.16-0.21-0.32-0.32-0.48c-0.48-0.72-0.98-1.43-1.48-2.13c-0.06-0.08-0.11-0.16-0.17-0.24c-0.54-0.76-1.09-1.52-1.65-2.27
			c-0.01-0.02-0.03-0.04-0.04-0.06c-3.5-4.68-7.33-9.12-11.49-13.28c-0.02-0.02-0.05-0.05-0.07-0.07c-0.65-0.65-1.3-1.29-1.97-1.92
			c-0.09-0.08-0.17-0.16-0.26-0.25c-0.6-0.57-1.21-1.13-1.82-1.69c-0.16-0.15-0.33-0.3-0.49-0.44c-0.54-0.48-1.07-0.96-1.62-1.43
			c-0.26-0.22-0.52-0.45-0.78-0.67c-0.45-0.39-0.91-0.77-1.37-1.15c-0.36-0.3-0.73-0.6-1.1-0.89c-0.36-0.3-0.73-0.59-1.1-0.88
			c-0.47-0.37-0.94-0.74-1.42-1.1c-0.27-0.21-0.54-0.42-0.82-0.62c-0.58-0.43-1.16-0.86-1.74-1.29c-0.18-0.13-0.36-0.26-0.54-0.39
			c-0.67-0.48-1.35-0.96-2.03-1.43c-0.1-0.07-0.19-0.13-0.29-0.2c-0.76-0.52-1.52-1.02-2.28-1.52c-0.03-0.02-0.06-0.04-0.09-0.06
			c-4.93-3.2-10.08-6.02-15.38-8.46c-0.02-0.01-0.04-0.02-0.07-0.03c-0.85-0.39-1.7-0.77-2.56-1.14c-0.09-0.04-0.18-0.07-0.26-0.11
			c-0.8-0.34-1.6-0.68-2.4-1c-0.18-0.07-0.35-0.14-0.53-0.21c-0.72-0.29-1.45-0.57-2.18-0.85c-0.3-0.11-0.59-0.22-0.89-0.33
			c-0.62-0.23-1.24-0.46-1.87-0.68c-0.47-0.16-0.94-0.32-1.41-0.48c-0.47-0.16-0.94-0.32-1.41-0.47c-0.96-0.31-1.92-0.61-2.88-0.89
			l-22.1,74.73c0,0,0,0,0,0C274.79,212.34,283.95,220.2,289.34,230.11z M296.62,164.98c0.43-0.75,1.4-1.01,2.15-0.58
			c13.13,7.56,24.51,18.22,32.92,30.82c0.48,0.72,0.29,1.7-0.44,2.19c-0.27,0.18-0.57,0.27-0.87,0.27c-0.51,0-1.01-0.25-1.31-0.7
			c-8.13-12.2-19.15-22.52-31.87-29.84C296.45,166.69,296.19,165.73,296.62,164.98z M285.39,159.66c0.33-0.8,1.26-1.19,2.06-0.85
			c1.7,0.71,3.4,1.47,5.06,2.28c0.78,0.38,1.11,1.32,0.73,2.11c-0.27,0.56-0.84,0.89-1.42,0.89c-0.23,0-0.46-0.05-0.69-0.16
			c-1.61-0.78-3.26-1.52-4.9-2.2C285.44,161.39,285.06,160.47,285.39,159.66z"/>
		<path class="st2" d="M148.2,184.91c-3.14,4.87-5.93,9.95-8.34,15.19c-0.01,0.02-0.02,0.04-0.03,0.07
			c-0.39,0.85-0.77,1.7-1.14,2.56c-0.04,0.09-0.07,0.18-0.11,0.26c-0.34,0.8-0.68,1.6-1,2.4c-0.07,0.18-0.14,0.35-0.21,0.53
			c-0.29,0.72-0.57,1.45-0.85,2.18c-0.11,0.3-0.22,0.59-0.33,0.89c-0.23,0.62-0.46,1.24-0.68,1.87c-0.16,0.47-0.32,0.94-0.48,1.41
			c-0.16,0.47-0.32,0.94-0.47,1.41c-0.31,0.96-0.61,1.92-0.89,2.88l74.73,22.1c3.37-11.4,11.21-20.68,21.23-26.16l-37.22-68.47
			C174.65,153.74,159.35,167.77,148.2,184.91z"/>
		<path class="st2" d="M162.08,167.23c-0.57,0.6-1.13,1.21-1.69,1.82c-0.15,0.16-0.3,0.33-0.44,0.49c-0.48,0.54-0.96,1.07-1.43,1.62
			c-0.22,0.26-0.45,0.52-0.67,0.78c-0.39,0.45-0.77,0.91-1.15,1.37c-0.3,0.36-0.6,0.73-0.9,1.1c-0.3,0.36-0.59,0.73-0.88,1.1
			c-0.37,0.47-0.74,0.94-1.1,1.42c-0.21,0.27-0.42,0.54-0.62,0.82c-0.43,0.58-0.86,1.16-1.29,1.74c-0.13,0.18-0.26,0.36-0.39,0.54
			c-0.48,0.67-0.96,1.35-1.43,2.03c-0.07,0.1-0.13,0.19-0.2,0.29c-0.52,0.76-1.02,1.52-1.52,2.28c-0.02,0.03-0.04,0.06-0.06,0.09
			c-0.04,0.06-0.08,0.13-0.12,0.2c11.15-17.14,26.45-31.17,44.23-40.89l-0.03-0.05c-0.89,0.48-1.76,0.97-2.63,1.48
			c-0.43,0.25-0.86,0.51-1.29,0.76c-0.42,0.25-0.85,0.5-1.27,0.76c-0.57,0.34-1.13,0.7-1.69,1.05c-0.27,0.17-0.54,0.33-0.8,0.5
			c-0.65,0.42-1.3,0.85-1.95,1.28c-0.16,0.11-0.32,0.21-0.48,0.32c-0.72,0.48-1.43,0.98-2.13,1.48c-0.08,0.06-0.16,0.11-0.24,0.17
			c-0.76,0.54-1.52,1.09-2.27,1.65c-0.02,0.01-0.04,0.03-0.06,0.04c-4.68,3.5-9.12,7.33-13.28,11.49c-0.02,0.02-0.05,0.05-0.07,0.07
			c-0.65,0.65-1.29,1.3-1.92,1.97C162.25,167.06,162.17,167.14,162.08,167.23z"/>
		<path class="st2" d="M211.95,272.18l-68.47,37.22c0.48,0.89,0.97,1.76,1.47,2.63c0.25,0.43,0.51,0.86,0.76,1.29
			c0.25,0.42,0.5,0.85,0.76,1.27c0.34,0.57,0.7,1.13,1.05,1.69c0.17,0.27,0.33,0.54,0.5,0.8c0.42,0.65,0.85,1.3,1.28,1.95
			c0.11,0.16,0.21,0.32,0.32,0.48c0.48,0.72,0.98,1.43,1.48,2.13c0.06,0.08,0.11,0.16,0.17,0.24c0.54,0.76,1.09,1.52,1.65,2.27
			c0.01,0.02,0.03,0.04,0.04,0.06c3.5,4.68,7.33,9.12,11.49,13.28c0.02,0.02,0.05,0.05,0.07,0.07c0.65,0.65,1.3,1.29,1.97,1.92
			c0.09,0.08,0.17,0.16,0.26,0.25c0.6,0.57,1.21,1.13,1.82,1.69c0.16,0.15,0.33,0.3,0.49,0.44c0.54,0.48,1.07,0.96,1.62,1.43
			c0.26,0.22,0.52,0.45,0.78,0.67c0.45,0.39,0.91,0.77,1.37,1.15c0.36,0.3,0.73,0.6,1.1,0.9c0.36,0.3,0.73,0.59,1.1,0.88
			c0.47,0.37,0.94,0.74,1.42,1.1c0.27,0.21,0.54,0.42,0.82,0.62c0.58,0.43,1.16,0.86,1.74,1.29c0.18,0.13,0.36,0.26,0.54,0.39
			c0.67,0.48,1.35,0.96,2.03,1.43c0.1,0.07,0.19,0.13,0.29,0.2c0.76,0.52,1.52,1.02,2.28,1.52c0.03,0.02,0.06,0.04,0.09,0.06
			c4.93,3.2,10.08,6.02,15.38,8.46c0.02,0.01,0.04,0.02,0.06,0.03c0.85,0.39,1.7,0.77,2.56,1.14c0.09,0.04,0.18,0.07,0.26,0.11
			c0.8,0.34,1.6,0.68,2.4,1c0.18,0.07,0.35,0.14,0.53,0.21c0.72,0.29,1.45,0.57,2.18,0.85c0.3,0.11,0.59,0.22,0.89,0.33
			c0.62,0.23,1.24,0.46,1.87,0.68c0.47,0.16,0.94,0.32,1.41,0.48c0.47,0.16,0.94,0.32,1.41,0.47c0.96,0.31,1.92,0.61,2.88,0.89
			l22.1-74.73C226.88,290.04,217.57,282.51,211.95,272.18z M199.87,332.9c-0.3,0.48-0.81,0.74-1.34,0.74
			c-0.29,0-0.57-0.08-0.83-0.24c-11.03-6.87-20.47-15.71-28.04-26.26c-0.51-0.71-0.35-1.69,0.36-2.2c0.71-0.51,1.69-0.35,2.2,0.36
			c7.34,10.22,16.47,18.77,27.15,25.43C200.1,331.19,200.33,332.16,199.87,332.9z M213.42,339.66c-0.25,0.6-0.84,0.96-1.45,0.96
			c-0.21,0-0.41-0.04-0.61-0.13c-2.71-1.15-5.4-2.43-7.99-3.82c-0.77-0.41-1.06-1.37-0.65-2.13c0.41-0.77,1.37-1.06,2.13-0.65
			c2.51,1.34,5.11,2.59,7.73,3.7C213.38,337.94,213.76,338.86,213.42,339.66z"/>
		<path class="st2" d="M361.48,302.12c0.39-0.85,0.77-1.7,1.14-2.56c0.04-0.09,0.07-0.18,0.11-0.26c0.34-0.8,0.68-1.6,1-2.4
			c0.07-0.18,0.14-0.35,0.21-0.53c0.29-0.72,0.57-1.45,0.85-2.18c0.11-0.3,0.22-0.59,0.33-0.89c0.23-0.62,0.46-1.24,0.68-1.87
			c0.16-0.47,0.32-0.94,0.48-1.41c0.16-0.47,0.32-0.94,0.47-1.41c0.31-0.96,0.61-1.92,0.89-2.88l-74.73-22.1c0,0,0,0,0,0
			c-3.37,11.4-11.21,20.68-21.23,26.16l37.22,68.47c17.77-9.72,33.07-23.75,44.23-40.89c3.14-4.87,5.93-9.95,8.34-15.19
			C361.46,302.16,361.47,302.14,361.48,302.12z"/>
		<path class="st2" d="M308.89,358.26l0.03,0.05c0.89-0.48,1.76-0.97,2.63-1.48c0.43-0.25,0.86-0.51,1.29-0.76
			c0.42-0.25,0.85-0.5,1.27-0.76c0.57-0.34,1.13-0.7,1.69-1.05c0.27-0.17,0.54-0.33,0.8-0.5c0.65-0.42,1.3-0.85,1.95-1.28
			c0.16-0.11,0.32-0.21,0.48-0.32c0.72-0.48,1.43-0.98,2.13-1.48c0.08-0.06,0.16-0.11,0.24-0.17c0.76-0.54,1.52-1.09,2.27-1.65
			c0.02-0.01,0.04-0.03,0.06-0.04c4.68-3.5,9.12-7.33,13.28-11.49c0.02-0.02,0.05-0.05,0.07-0.07c0.65-0.65,1.29-1.3,1.92-1.97
			c0.08-0.09,0.16-0.17,0.25-0.26c0.57-0.6,1.13-1.21,1.69-1.82c0.15-0.16,0.3-0.33,0.44-0.49c0.48-0.54,0.96-1.07,1.43-1.62
			c0.22-0.26,0.45-0.52,0.67-0.78c0.39-0.45,0.77-0.91,1.15-1.37c0.3-0.36,0.6-0.73,0.89-1.1c0.3-0.36,0.59-0.73,0.88-1.1
			c0.37-0.47,0.74-0.94,1.1-1.42c0.21-0.27,0.42-0.54,0.62-0.82c0.43-0.58,0.86-1.16,1.29-1.74c0.13-0.18,0.26-0.36,0.39-0.54
			c0.48-0.67,0.96-1.35,1.43-2.03c0.07-0.1,0.13-0.19,0.2-0.29c0.52-0.76,1.02-1.52,1.52-2.28c0.02-0.03,0.04-0.06,0.06-0.09
			c0.04-0.06,0.08-0.13,0.12-0.2C341.96,334.51,326.66,348.54,308.89,358.26z"/>
		<path class="st3" d="M262.73,210.29l0.41-1.39c-4.08-1.21-8.29-1.82-12.51-1.82c-7.49,0-14.67,1.95-20.99,5.41l0.67,1.23
			C239.89,208.51,251.45,206.95,262.73,210.29z"/>
		<path class="st3" d="M211.95,272.18l1.28-0.69c-5.21-9.58-6.76-21.14-3.42-32.42l-1.39-0.41
			C205.08,249.93,206.34,261.84,211.95,272.18z"/>
		<path class="st3" d="M238.58,291.99L238.58,291.99l-0.41,1.39c0,0,0,0,0,0c4.08,1.21,8.29,1.82,12.51,1.82
			c7.49,0,14.67-1.95,20.99-5.41l-0.67-1.23C261.42,293.77,249.86,295.32,238.58,291.99z"/>
		<path class="st3" d="M291.5,263.22L291.5,263.22l1.39,0.41c3.44-11.65,1.83-23.61-3.56-33.52l-1.26,0.68
			C293.29,240.37,294.84,251.94,291.5,263.22z"/>
		<path class="st3" d="M262.73,210.29c11.28,3.34,20.14,10.93,25.35,20.51l1.26-0.68c-5.39-9.91-14.55-17.77-26.19-21.21
			c0,0,0,0,0,0L262.73,210.29L262.73,210.29z"/>
		<path class="st3" d="M230.31,213.71l-0.67-1.23c-10.02,5.48-17.86,14.77-21.23,26.16l1.39,0.41
			C213.14,227.78,220.73,218.92,230.31,213.71z"/>
		<path class="st3" d="M213.23,271.48l-1.28,0.69c5.62,10.34,14.93,17.87,26.21,21.2l0.41-1.39
			C227.3,288.65,218.44,281.06,213.23,271.48z"/>
		<path class="st3" d="M271,288.56l0.67,1.23c10.02-5.48,17.86-14.77,21.23-26.16c0,0,0,0,0,0l-1.39-0.41
			C288.17,274.5,280.58,283.36,271,288.56z"/>
		<path class="st3" d="M290.11,262.81C290.11,262.81,290.11,262.81,290.11,262.81l1.39,0.41v0c3.34-11.28,1.78-22.84-3.42-32.42
			l-1.29,0.7C291.82,240.76,293.33,251.93,290.11,262.81z"/>
		<path class="st3" d="M211.2,239.47l-1.39-0.41c-3.34,11.28-1.78,22.84,3.42,32.42l1.28-0.69
			C209.26,261.13,208.08,250.01,211.2,239.47z"/>
		<path class="st3" d="M250.64,209.98c3.94,0,7.87,0.57,11.68,1.7c0,0,0,0,0,0l0.41-1.39c-11.28-3.34-22.84-1.78-32.42,3.42
			l0.72,1.33C236.94,211.81,243.64,209.98,250.64,209.98z"/>
		<path class="st3" d="M250.67,292.3c-3.94,0-7.87-0.57-11.68-1.7c0,0,0,0,0,0l-0.41,1.39h0c11.28,3.34,22.84,1.78,32.42-3.42
			l-0.72-1.33C264.37,290.46,257.67,292.3,250.67,292.3z"/>
		<path class="st3" d="M286.79,231.5l1.29-0.7c-5.21-9.58-14.07-17.17-25.35-20.51h0l-0.41,1.39
			C273.2,214.9,281.76,222.24,286.79,231.5z"/>
		<path class="st3" d="M211.2,239.47c3.15-10.65,10.48-19.31,19.83-24.43l-0.72-1.33c-9.58,5.21-17.17,14.07-20.51,25.35
			L211.2,239.47L211.2,239.47z"/>
		<path class="st3" d="M238.58,291.99l0.41-1.39c-10.54-3.12-19.23-10.15-24.48-19.81l0,0l-1.28,0.69
			C218.44,281.06,227.3,288.65,238.58,291.99z"/>
		<path class="st3" d="M270.28,287.24l0.72,1.33c9.58-5.21,17.17-14.07,20.51-25.35l-1.39-0.41
			C286.96,273.45,279.64,282.12,270.28,287.24z"/>
		<path class="st2" d="M250.66,262.07c-1.05,0-2.09-0.15-3.1-0.45l-5.63,19.04c8.15,2.41,16.51,1.29,23.43-2.47l-9.49-17.46
			C254.3,261.59,252.52,262.07,250.66,262.07z"/>
		<path class="st2" d="M250.65,240.2c1.05,0,2.09,0.15,3.1,0.45l5.63-19.04c-8.15-2.41-16.51-1.29-23.43,2.47l9.49,17.46
			C247.01,240.69,248.79,240.2,250.65,240.2z"/>
		<path class="st2" d="M241.05,256.36c-1.39-2.56-1.71-5.52-0.88-8.32l-19.04-5.63c-2.41,8.15-1.29,16.51,2.47,23.43L241.05,256.36
			C241.05,256.36,241.05,256.36,241.05,256.36z"/>
		<path class="st2" d="M261.14,254.24C261.14,254.24,261.14,254.24,261.14,254.24l19.04,5.63c2.41-8.15,1.29-16.51-2.47-23.43
			l-17.45,9.48C261.59,248.38,261.99,251.35,261.14,254.24z"/>
		<path class="st2" d="M260.26,245.92l17.45-9.48c-3.76-6.92-10.17-12.41-18.32-14.82l-5.63,19.04
			C256.65,241.51,258.92,243.46,260.26,245.92z"/>
		<path class="st2" d="M245.44,241.55l-9.49-17.46c-6.92,3.76-12.41,10.17-14.82,18.32l19.04,5.63
			C241.01,245.21,242.96,242.91,245.44,241.55z"/>
		<path class="st2" d="M241.05,256.36l-17.44,9.48c3.76,6.92,10.17,12.41,18.32,14.82l5.63-19.04
			C244.76,260.79,242.45,258.93,241.05,256.36z"/>
		<path class="st2" d="M280.18,259.87l-19.04-5.63c-0.84,2.83-2.78,5.13-5.27,6.49l9.49,17.46
			C272.28,274.42,277.77,268.02,280.18,259.87z"/>
		<path class="st2" d="M247.97,260.23l-0.41,1.39c1.01,0.3,2.06,0.45,3.1,0.45c1.86,0,3.64-0.49,5.21-1.34l-0.69-1.26
			C253.05,260.63,250.48,260.97,247.97,260.23z"/>
		<path class="st2" d="M260.26,245.92l-1.27,0.69c1.16,2.13,1.5,4.71,0.76,7.22v0l1.39,0.41c0,0,0,0,0,0
			C261.99,251.35,261.59,248.38,260.26,245.92z"/>
		<path class="st2" d="M253.34,242.05l0.41-1.39c-1.01-0.3-2.06-0.45-3.1-0.45c-1.86,0-3.64,0.49-5.21,1.34l0.69,1.26
			C248.26,241.65,250.83,241.31,253.34,242.05z"/>
		<path class="st2" d="M241.56,248.45l-1.39-0.41c-0.83,2.8-0.52,5.76,0.88,8.32c0,0,0,0,0,0l1.28-0.69
			C241.17,253.53,240.82,250.96,241.56,248.45z"/>
		<path class="st2" d="M253.34,242.05c2.51,0.74,4.48,2.43,5.64,4.56l1.27-0.69c-1.34-2.46-3.61-4.41-6.5-5.27L253.34,242.05
			L253.34,242.05z"/>
		<path class="st2" d="M241.56,248.45c0.74-2.51,2.43-4.48,4.56-5.64l-0.69-1.26c-2.49,1.36-4.43,3.66-5.27,6.49L241.56,248.45
			C241.56,248.45,241.56,248.45,241.56,248.45z"/>
		<path class="st2" d="M242.33,255.67l-1.28,0.69c1.39,2.57,3.7,4.43,6.5,5.26l0.41-1.39C245.46,259.49,243.48,257.8,242.33,255.67z
			"/>
		<path class="st2" d="M255.18,259.47l0.69,1.26c2.49-1.36,4.43-3.66,5.27-6.49l-1.39-0.41C259,256.34,257.31,258.31,255.18,259.47z
			"/>
		<path class="st2" d="M250.66,259.17c-0.77,0-1.53-0.11-2.28-0.33l-0.41,1.39c2.51,0.74,5.08,0.4,7.22-0.76l-0.7-1.29
			C253.33,258.81,252.02,259.17,250.66,259.17z"/>
		<path class="st2" d="M250.65,243.11c0.77,0,1.53,0.11,2.28,0.33c0,0,0,0,0,0l0.41-1.39c-2.51-0.74-5.08-0.4-7.22,0.76l0.7,1.29
			C247.98,243.47,249.29,243.11,250.65,243.11z"/>
		<path class="st2" d="M258.35,253.42l1.39,0.41v0c0.74-2.51,0.4-5.08-0.76-7.22l-1.28,0.7
			C258.69,249.11,258.98,251.29,258.35,253.42z"/>
		<path class="st2" d="M243.6,254.97c-1.02-1.88-1.25-4.05-0.65-6.11l-1.39-0.41c-0.74,2.51-0.4,5.08,0.76,7.22L243.6,254.97
			C243.6,254.97,243.6,254.97,243.6,254.97z"/>
		<path class="st2" d="M253.34,242.05L253.34,242.05l-0.41,1.39c2.12,0.63,3.79,2.06,4.77,3.87l1.28-0.7
			C257.83,244.48,255.85,242.79,253.34,242.05z"/>
		<path class="st2" d="M242.96,248.86c0.61-2.08,2.05-3.76,3.87-4.76l-0.7-1.29c-2.13,1.16-3.82,3.13-4.56,5.64c0,0,0,0,0,0
			L242.96,248.86C242.96,248.86,242.96,248.86,242.96,248.86z"/>
		<path class="st2" d="M248.38,258.84c-2.06-0.61-3.75-1.98-4.78-3.86l-1.28,0.69c1.16,2.13,3.13,3.82,5.64,4.56L248.38,258.84
			L248.38,258.84z"/>
		<path class="st2" d="M254.48,258.18l0.7,1.29c2.13-1.16,3.82-3.13,4.56-5.64l-1.39-0.41
			C257.74,255.49,256.31,257.18,254.48,258.18z"/>
		<path class="st2" d="M250.59,100.24c2.04,0,4.09,0.05,6.13,0.14l4.54-9.33c-0.41-0.59-1.08-0.96-1.8-0.96h-17.6
			c-0.72,0-1.37,0.36-1.78,0.94l4.79,9.33C246.77,100.28,248.68,100.24,250.59,100.24z"/>
		<path class="st2" d="M250.89,112.08c0.01,0,0.02,0,0.02,0c0.04,0,0.08-0.01,0.11-0.02l4.3-8.84c-1.58-0.05-3.16-0.09-4.74-0.09
			c-1.42,0-2.84,0.05-4.25,0.09L250.89,112.08C250.89,112.08,250.89,112.08,250.89,112.08z"/>
		<path class="st2" d="M256.03,101.79l0.69-1.42c-2.04-0.08-4.08-0.14-6.13-0.14c-1.91,0-3.82,0.04-5.73,0.12l0.73,1.43
			C249.06,101.66,252.54,101.66,256.03,101.79z"/>
		<path class="st2" d="M255.33,103.23l0.7-1.44c-3.49-0.13-6.97-0.13-10.43-0.01l0.74,1.45c1.41-0.04,2.83-0.09,4.25-0.09
			C252.17,103.14,253.75,103.17,255.33,103.23z"/>
		<path class="st2" d="M151.96,108.49c-19.91,13.78-36.44,31.21-49.15,51.79c-0.42,0.68-0.21,1.58,0.47,2
			c0.24,0.15,0.5,0.22,0.76,0.22c0.49,0,0.96-0.24,1.24-0.69c12.49-20.24,28.75-37.38,48.33-50.93c0.66-0.46,0.82-1.36,0.37-2.02
			C153.53,108.2,152.62,108.03,151.96,108.49z"/>
		<path class="st2" d="M396.02,340.84c-11.5,18.63-26.26,34.69-43.87,47.74c-0.64,0.48-0.78,1.39-0.3,2.03
			c0.28,0.38,0.72,0.59,1.17,0.59c0.3,0,0.6-0.09,0.86-0.29c17.91-13.27,32.92-29.6,44.61-48.54c0.42-0.68,0.21-1.58-0.47-2
			C397.34,339.95,396.45,340.16,396.02,340.84z"/>
		<path class="st2" d="M158.07,97.17c0.67-0.4,0.88-1.27,0.48-1.93c-0.4-0.67-1.27-0.88-1.93-0.48
			c-31.13,18.8-55.74,46.1-71.17,78.96c-0.33,0.7-0.03,1.54,0.68,1.87c0.19,0.09,0.4,0.13,0.6,0.13c0.53,0,1.04-0.3,1.28-0.81
			C103.18,142.57,127.41,115.68,158.07,97.17z"/>
		<path class="st2" d="M415.2,328.03c-0.7-0.34-1.54-0.04-1.88,0.66c-14.27,29.87-36.5,55.24-64.29,73.37
			c-0.65,0.42-0.83,1.3-0.41,1.95c0.27,0.41,0.72,0.64,1.18,0.64c0.26,0,0.53-0.07,0.77-0.23c28.23-18.41,50.81-44.17,65.3-74.51
			C416.2,329.21,415.9,328.37,415.2,328.03z"/>
	</g>
</g>
</svg>
