<svg xmlns="http://www.w3.org/2000/svg" viewBox="0 0 495.26 495.26"><defs><style>.cls-1{fill:none;stroke:#000;stroke-miterlimit:10;stroke-width:10px;}.cls-2{fill:#fff;}</style></defs><title>Withdraw</title><g id="วงกลม"><circle class="cls-1" cx="247.63" cy="247.63" r="242.63"/></g><g id="Layer_2" data-name="Layer 2"><path d="M324.45,396.39H173.21c-10.61-3.57-14.21-11.27-14.06-22.18.34-26.23.11-52.47.11-78.71v-6.21c-10.42,0-20.12.12-29.8,0-10.05-.16-19.61-4-25.61-12.16-3.78-5.14-6.75-12-6.75-18.5V172.08c0-7.51-.63-15.33,1-22.79a30.11,30.11,0,0,1,12.71-18.81,31.75,31.75,0,0,1,18.62-5.4H365.65c9.69,0,20.68,1.78,26.62,10.41,4.76,6.91,8.3,15.26,8.3,23.82V253c0,6.49-.54,12.6-3.39,18.6a32.05,32.05,0,0,1-4.18,6.63A28.84,28.84,0,0,1,380.71,287a31.86,31.86,0,0,1-8.53,1.84c-9.49.75-19.07.51-28.6.32-4-.08-5.34,1.05-5.31,5.27.18,26.56-.15,53.12.2,79.67C338.61,385,335,392.76,324.45,396.39Zm14.17-121.57c9.77,0,19.12.08,28.46,0,13-.14,19.65-6.94,19.66-20.07q0-47.61,0-95.23a27.34,27.34,0,0,0-.47-5.94c-2.21-9.71-8.95-14.34-20.73-14.34q-116.61,0-233.23,0a37.55,37.55,0,0,0-6.86.61c-8.73,1.63-14.42,7.94-14.46,16.93q-.23,50.35,0,100.72c0,8.73,6.27,16.44,14.47,16.95,11,.68,22,.17,33.21.17v-43H139V182.52H358.63v49.95h-20ZM307.85,197C305,232.72,279,252.14,251,253.57c-15.05.77-28.46-4-40.18-13.68-13.42-11-19.8-25.63-21-42.89h-16.6c-.08,1.74-.21,3.2-.21,4.65q0,64.83,0,129.64c0,7.63.46,8.07,8.2,8.07H316.12c8.08,0,8.45-.35,8.45-8.33q0-64.57,0-129.14c0-1.59-.16-3.19-.25-4.89Zm-103.09.08c-1.31,12.8,6.65,27.43,19.7,35.14,16.48,9.74,33.28,9.56,49.45-.67,12.28-7.77,19.35-19,19.32-34.47ZM173.48,353.67c-1.07,4.87.42,6.9,5.18,6.89q70.13-.12,140.25-.07c5.42,0,6.09-1.07,4.83-6.82Zm150.63,21.82H173.53c-.49,5.86.08,6.44,6.89,6.44q47.13,0,94.26,0h43.43C322.14,381.94,325.6,381.35,324.11,375.49Zm20.78-157.93V197.07h-6v20.49Zm-186.35-.11V197H152.8v20.48Z" transform="translate(-2.37 -3.37)"/><path class="cls-2" d="M97.1,152" transform="translate(-2.37 -3.37)"/><path class="cls-2" d="M101.32,141.07" transform="translate(-2.37 -3.37)"/><path d="M187.38,282.6h12.39v41.64H187.38Z" transform="translate(-2.37 -3.37)"/><path d="M310.27,324.38H297.93V282.84h12.34Z" transform="translate(-2.37 -3.37)"/></g></svg>